SplineFontDB: 3.0
FontName: Untitled1
FullName: Untitled1
FamilyName: Untitled1
Weight: Medium
Copyright: Created by Andrey V. Panov,211,310911, with FontForge 1.0 (http://fontforge.sf.net)
UComments: "2005-10-18: Created." 
Version: 001.000
ItalicAngle: 0
UnderlinePosition: -100
UnderlineWidth: 50
Ascent: 800
Descent: 200
LayerCount: 2
Layer: 0 0 "+BBcEMAQ0BD0EOAQ5 +BD8EOwQwBD0A"  1
Layer: 1 0 "+BB8ENQRABDUENAQ9BDgEOQAA +BD8EOwQwBD0A"  0
NeedsXUIDChange: 1
XUID: [1021 305 2130962764 13816454]
OS2Version: 0
OS2_WeightWidthSlopeOnly: 0
OS2_UseTypoMetrics: 0
CreationTime: 1146570810
ModificationTime: 1234596362
OS2TypoAscent: 0
OS2TypoAOffset: 1
OS2TypoDescent: 0
OS2TypoDOffset: 1
OS2TypoLinegap: 0
OS2WinAscent: 0
OS2WinAOffset: 1
OS2WinDescent: 0
OS2WinDOffset: 1
HheadAscent: 0
HheadAOffset: 1
HheadDescent: 0
HheadDOffset: 1
OS2Vendor: 'PfEd'
DEI: 91125
Encoding: UnicodeBmp
UnicodeInterp: none
NameList: Adobe Glyph List
DisplaySize: -48
AntiAlias: 1
FitToEm: 1
WinInfo: 65328 16 14
BeginChars: 65543 132

StartChar: longs
Encoding: 383 383 0
Width: 305
Flags: HMW
TeX: 108 0
HStem: 0 31<34 34 275 275> 400 31<33 112> 591 84 683 22<245 268.5>
VStem: 112 66<76 78 78 400> 270 87<623 646.5>
LayerCount: 2
Fore
SplineSet
33 400 m 1
 33 431 l 1
 112 431 l 1
 112 546 l 2
 112 652 197 705 267 705 c 0
 320 705 357 672 357 635 c 0
 357 611 342 591 313 591 c 0
 286 591 270 611 270 634 c 0
 270 659 288 672 300 676 c 1
 285 683 270 683 267 683 c 0
 223 683 174 635 174 547 c 0
 174 547 177 476 177 431 c 26
 181 293 177 78 177 78 c 2
 177 42 180 31 254 31 c 2
 275 31 l 1
 275 0 l 1
 235 3 188 3 148 3 c 0
 120 3 73 1 34 0 c 1
 34 31 l 1
 101 31 112 31 112 76 c 2
 112 400 l 1
 33 400 l 1
EndSplineSet
EndChar

StartChar: florin
Encoding: 402 402 1
Width: 500
Flags: HW
TeX: 102 0
HStem: -205 22<73 143.5> 400 31<187.5 255.5 313.5 397.5> 683 22<357.5 427>
VStem: 12 84<-161.5 -105> 404 84<605 660.5>
LayerCount: 2
Fore
SplineSet
12 -139 m 0
 12 -104 36 -84 62 -84 c 0
 78 -84 96 -94 96 -116 c 0
 96 -136 82 -160 52 -165 c 1
 62 -180 82 -183 92 -183 c 0
 128 -183 140 -131 148 -97 c 0
 154 -76 164 -35 176 27 c 2
 250 400 l 1
 188 400 l 2
 172 400 162 400 162 411 c 0
 162 431 174 431 190 431 c 2
 256 431 l 1
 276 541 l 2
 284 575 308 705 406 705 c 0
 448 705 488 682 488 639 c 0
 488 604 464 584 438 584 c 0
 422 584 404 594 404 616 c 0
 404 636 418 660 448 665 c 1
 436 681 414 683 406 683 c 0
 370 683 360 630 352 593 c 0
 336 523 334 505 320 431 c 1
 398 431 l 2
 414 431 422 431 422 418 c 0
 422 400 412 400 396 400 c 2
 314 400 l 1
 244 41 l 2
 236 5 196 -205 92 -205 c 0
 54 -205 12 -184 12 -139 c 0
EndSplineSet
EndChar

StartChar: uni03F5
Encoding: 1013 1013 2
Width: 430
Flags: HW
TeX: 117 0
LayerCount: 2
Fore
SplineSet
50 187 m 0
 47 207 47 228 50 247 c 0
 54 272 62 294 75 314 c 0
 97 351 132 378 171 397 c 0
 232 428 306 441 381 442 c 1
 381 417 l 1
 323 416 268 403 222 376 c 0
 189 357 160 330 142 297 c 0
 134 281 129 264 125 247 c 1
 190 245 l 1
 294 242 l 1
 356 240 l 1
 356 215 l 1
 247 212 l 1
 123 209 l 1
 124 200 125 191 126 183 c 0
 129 170 133 158 138 147 c 0
 143 135 150 125 157 114 c 0
 164 105 173 96 181 87 c 0
 188 81 196 74 204 69 c 0
 257 29 322 15 381 14 c 1
 381 -11 l 1
 381 -11 l 1
 364 -11 346 -10 329 -9 c 0
 314 -7 300 -5 286 -2 c 0
 275 -0 264 2 253 5 c 0
 244 8 234 10 226 13 c 0
 171 32 113 65 79 116 c 0
 73 124 68 134 64 143 c 0
 57 157 53 172 50 187 c 0
EndSplineSet
EndChar

StartChar: uni01EB
Encoding: 491 491 3
Width: 500
Flags: HW
HStem: -217 46<291.5 364> -11 25<190.5 275> 426 22<187.5 310.5>
VStem: 28 83<149.5 276.5> 213 45<-145.5 -72> 388 83<165 278>
LayerCount: 2
Fore
SplineSet
28 214 m 0
 28 339 125 448 250 448 c 0
 371 448 471 342 471 214 c 0
 471 116 411 36 329 4 c 1
 294 -24 258 -50 258 -94 c 0
 258 -139 302 -171 340 -171 c 0
 388 -171 403 -127 409 -121 c 0
 418 -110 427 -120 427 -128 c 0
 427 -149 391 -217 321 -217 c 0
 262 -217 213 -173 213 -118 c 0
 213 -72 239 -45 272 -10 c 1
 265 -11 257 -11 249 -11 c 0
 132 -11 28 85 28 214 c 0
111 222 m 0
 111 186 111 125 136 81 c 0
 163 35 207 14 250 14 c 0
 300 14 344 43 366 88 c 0
 388 132 388 186 388 222 c 0
 388 260 388 318 362 361 c 0
 336 404 293 426 249 426 c 0
 209 426 162 405 135 359 c 0
 111 315 111 261 111 222 c 0
EndSplineSet
EndChar

StartChar: phi1
Encoding: 981 981 4
Width: 578
Flags: HMW
HStem: -11 27<194.443 273> 414 26<309 309>
VStem: 42 76<52.5 291.5> 251 76<-278.9 -200.534 627.093 720.9> 460 76<135.9 376.2>
LayerCount: 2
Fore
SplineSet
42 215 m 0
 42 324 122 431 267 440 c 1
 260 579 251 670 251 678 c 0
 251 711 276 718 289 718 c 0
 302 718 327 711 327 678 c 0
 327 650 317 581 310 440 c 1
 448 432 536 339 536 215 c 0
 536 105 454 -3 305 -11 c 1
 309 -106 327 -223 327 -236 c 0
 327 -269 302 -276 289 -276 c 0
 276 -276 251 -269 251 -236 c 0
 251 -215 266 -138 273 -11 c 1
 132 -4 42 90 42 215 c 0
118 168 m 0
 118 75 158 16 263 16 c 2
 274 16 l 1
 275 45 276 77 276 110 c 0
 276 220 273 322 269 408 c 1
 164 381 118 263 118 168 c 0
302 104 m 0
 302 87 303 48 304 20 c 1
 413 45 460 165 460 262 c 0
 460 355 420 414 315 414 c 0
 309 414 l 1
 305 333 302 232 302 104 c 0
EndSplineSet
EndChar

StartChar: uni03F1
Encoding: 1009 1009 5
Width: 472
Flags: HW
HStem: -170 70<174.3 314.512> -11 19<129.7 351.7> 422 20<125.8 298.7>
VStem: 41 75<130.4 283.002> 355 75<92.6 384.9>
LayerCount: 2
Fore
SplineSet
41 211 m 0
 41 235 42 254 44 267 c 0
 62 371 141 442 235 442 c 0
 342 442 430 348 430 225 c 0
 430 112 359 -11 235 -11 c 0
 154 -11 105 42 77 87 c 1
 79 76 82 64 85 53 c 0
 122 -97 186 -100 225 -100 c 2
 281 -100 l 2
 385 -100 411 -175 411 -218 c 0
 411 -236 406 -249 400 -249 c 0
 391 -249 388 -199 329 -177 c 0
 313 -171 296 -170 279 -170 c 2
 230 -170 l 2
 148 -170 100 -143 64 2 c 0
 49 61 41 149 41 211 c 0
116 223 m 0
 116 137 140 8 236 8 c 0
 325 8 355 122 355 220 c 0
 355 382 284 422 235 422 c 0
 151 422 116 324 116 223 c 0
EndSplineSet
EndChar

StartChar: u1D703
Encoding: 65536 120579 6
Width: 442
Flags: HMW
HStem: -11 27<139 340.5> 361 21<99 336> 678 27<99.5 301>
VStem: 41 71<179 348> 328 71<407 412 288 488.5>
LayerCount: 2
Fore
SplineSet
112 252 m 0
 112 160 154 16 204 16 c 0
 286 16 315 232 325 361 c 1
 118 361 l 1
 113 312 112 271 112 252 c 0
41 348 m 0
 41 466 83 705 210 705 c 0
 341 705 399 477 399 347 c 0
 399 229 362 -11 230 -11 c 0
 112 -11 41 218 41 348 c 0
120 382 m 1
 326 382 l 1
 327 409 328 430 328 442 c 0
 328 535 286 678 236 678 c 0
 164 678 132 510 120 382 c 1
EndSplineSet
EndChar

StartChar: Gcommaaccent
Encoding: 290 290 7
Width: 784
Flags: W
HStem: -147 74<383.3 425.621> -22 31<337.5 465.02> 242 28<452 601 650.5 652 663.113 735> 674 31<338 532.7>
VStem: 56 103<75.5 608.5> 436 16<-230.8 -134> 577 89<9 231>
LayerCount: 2
Fore
SplineSet
56 342 m 0
 56 547 218 705 404 705 c 0
 503 705 557 651 589 619 c 1
 639 693 l 2
 647 705 651 705 655 705 c 0
 666 705 666 698 666 681 c 2
 666 444 l 2
 666 423 666 420 650 420 c 0
 636 420 636 423 634 437 c 0
 614 584 523 674 416 674 c 0
 356 674 159 641 159 342 c 0
 159 44 357 9 422 9 c 0
 450 9 577 18 577 130 c 2
 577 194 l 2
 577 231 574 242 484 242 c 2
 452 242 l 1
 452 273 l 1
 488 270 573 270 613 270 c 0
 643 270 698 272 735 273 c 1
 735 242 l 1
 670 242 666 237 666 198 c 2
 666 24 l 2
 666 9 666 1 657 1 c 0
 646 1 606 41 593 63 c 1
 559 4 479 -22 406 -22 c 0
 216 -22 56 137 56 342 c 0
371 -110 m 0
 371 -90 385 -73 407 -73 c 0
 430 -73 452 -93 452 -145 c 0
 452 -211 408 -281 388 -281 c 0
 385 -281 382 -277 382 -274 c 0
 382 -264 436 -228 436 -146 c 2
 436 -134 l 1
 427 -143 417 -147 408 -147 c 0
 389 -147 371 -131 371 -110 c 0
EndSplineSet
EndChar

StartChar: gcommaaccent
Encoding: 291 291 8
Width: 500
Flags: HW
HStem: -206 23<199.5 299 199.5 308> 7 58<162 264.5> 149 23<212.5 242 178.5 268.5> 419 23<202 233 175.5 265.5> 431 22<424 434> 646 106 924 20
VStem: 28 52<-105.5 -59> 60 75<283.5 308.5 283.5 334.5> 309 75<282.5 307.5> 419 52<-106 -59.5 -116 -36>
LayerCount: 2
Fore
SplineSet
28 -79 m 0
 28 -39 60 4 120 21 c 1
 89 41 76 79 76 110 c 0
 76 145 94 178 107 193 c 1
 82 214 60 252 60 296 c 0
 60 373 129 442 222 442 c 0
 244 442 286 439 328 406 c 1
 370 447 414 453 434 453 c 0
 473 453 485 421 485 404 c 0
 485 381 466 374 456 374 c 0
 440 374 427 386 427 403 c 0
 427 415 432 426 443 430 c 1
 440 431 435 431 433 431 c 0
 415 431 379 426 343 392 c 1
 368 369 384 332 384 295 c 0
 384 218 315 149 222 149 c 0
 203 149 162 152 123 180 c 1
 106 160 106 137 106 133 c 0
 106 101 127 70 159 66 c 0
 166 65 209 65 234 65 c 0
 295 65 353 65 406 37 c 0
 457 9 471 -42 471 -77 c 0
 471 -155 367 -206 249 -206 c 0
 127 -206 28 -151 28 -79 c 0
80 -79 m 0
 80 -132 149 -183 250 -183 c 0
 348 -183 419 -133 419 -79 c 0
 419 7 307 7 221 7 c 2
 162 7 l 2
 118 4 80 -33 80 -79 c 0
135 295 m 0
 135 272 135 172 222 172 c 0
 262 172 285 200 293 212 c 0
 308 237 309 269 309 296 c 0
 309 319 309 419 222 419 c 0
 182 419 159 391 151 379 c 0
 136 354 135 322 135 295 c 0
167 582 m 0
 167 672 243 730 259 730 c 0
 262 730 270 728 270 720 c 0
 270 709 253 708 227 678 c 0
 204 651 190 617 190 581 c 1
 196 587 208 602 234 602 c 0
 263 602 286 581 286 550 c 0
 286 524 269 497 233 497 c 0
 196 497 167 533 167 582 c 0
EndSplineSet
EndChar

StartChar: Hbar
Encoding: 294 294 9
Width: 750
Flags: W
HStem: 0 31<33 134 227 328 421 522 615 716> 3 28<33 157.1 203.9 328 421 545.1 591.9 716> 340 31<225 524> 516 32<40.9917 136 225 524 613 708.11> 652 28<33 157.1 227 328 421 545.1 615 716>
VStem: 136 89<31.2 340 371 516 548 641> 524 89<42 340 371 516 548 641>
LayerCount: 2
Fore
SplineSet
33 0 m 1xbe
 33 31 l 1
 57 31 l 2
 134 31 136 42 136 78 c 2
 136 516 l 1
 58 516 l 2
 44 516 33 518 33 532 c 0
 33 546 45 548 65 548 c 2
 136 548 l 1
 136 605 l 2
 136 641 134 652 57 652 c 2
 33 652 l 1
 33 683 l 1
 68 680 143 680 181 680 c 0
 219 680 293 680 328 683 c 1
 328 652 l 1
 304 652 l 2
 227 652 225 641 225 605 c 2
 225 548 l 1
 524 548 l 1
 524 605 l 2
 524 641 522 652 445 652 c 2
 421 652 l 1
 421 683 l 1
 456 680 531 680 569 680 c 0
 607 680 681 680 716 683 c 1
 716 652 l 1
 692 652 l 2
 615 652 613 641 613 605 c 2
 613 548 l 1
 687 548 l 2
 702 548 716 547 716 532 c 0
 716 518 703 516 690 516 c 2
 613 516 l 1
 613 78 l 2
 613 42 615 31 692 31 c 2
 716 31 l 1
 716 0 l 1xbe
 681 3 606 3 568 3 c 0x7e
 530 3 456 3 421 0 c 1
 421 31 l 1
 445 31 l 2
 522 31 524 42 524 78 c 2
 524 340 l 1
 225 340 l 1
 225 78 l 2
 225 42 227 31 304 31 c 2
 328 31 l 1
 328 0 l 1xbe
 293 3 218 3 180 3 c 0x7e
 142 3 68 3 33 0 c 1xbe
225 371 m 1
 524 371 l 1
 524 516 l 1
 225 516 l 1
 225 371 l 1
EndSplineSet
EndChar

StartChar: Iogonek
Encoding: 302 302 10
Width: 361
Flags: W
HStem: -217 46<177.9 296.7> 0 31<28 133 228 333> 3 28<28 156.7 213 333> 652 28<28 156.7 228 333>
VStem: 99 45<-153.8 -86.8> 136 89<31.2 641>
LayerCount: 2
Fore
SplineSet
28 0 m 1xd8
 28 31 l 1
 54 31 l 2
 133 31 136 42 136 78 c 2
 136 605 l 2
 136 641 133 652 54 652 c 2
 28 652 l 1
 28 683 l 1
 63 680 142 680 181 680 c 0
 219 680 298 680 333 683 c 1
 333 652 l 1
 307 652 l 2
 228 652 225 641 225 605 c 2
 225 78 l 2
 225 42 228 31 307 31 c 2
 333 31 l 1
 333 0 l 1xd4
 305 2 254 3 213 3 c 1
 203 0 193 -9 179 -24 c 0
 160 -42 144 -66 144 -94 c 0
 144 -140 189 -171 226 -171 c 0
 281 -171 289 -116 303 -116 c 0
 305 -116 307 -117 310 -119 c 1
 311 -121 312 -123 312 -127 c 0
 312 -151 276 -217 207 -217 c 0
 155 -217 99 -180 99 -118 c 0
 99 -94 109 -48 170 3 c 1xb8
 130 3 61 3 28 0 c 1xd8
EndSplineSet
EndChar

StartChar: iogonek
Encoding: 303 303 11
Width: 277
Flags: MW
HStem: -217 46<137.9 256.7> 0 31<33 120.1 172.818 247> 400 31<37 75.1818> 563 106<87.7 164.4>
VStem: 59 45<-153.8 -86.8> 111 66<24.3 394>
LayerCount: 2
Fore
SplineSet
33 0 m 1
 33 31 l 1
 100 31 111 31 111 76 c 2
 111 345 l 2
 111 394 102 400 37 400 c 1
 37 431 l 1
 177 442 l 1
 177 75 l 2
 177 36 181 31 247 31 c 1
 247 0 l 1
 228 0 209 2 189 2 c 1
 183 0 154 -8 139 -24 c 0
 120 -42 104 -66 104 -94 c 0
 104 -140 149 -171 186 -171 c 0
 241 -171 249 -116 263 -116 c 0
 265 -116 267 -117 270 -119 c 1
 271 -121 272 -123 272 -127 c 0
 272 -151 236 -217 167 -217 c 0
 115 -217 59 -180 59 -118 c 0
 59 -94 69 -48 129 3 c 1
 33 0 l 1
75 616 m 0
 75 642 97 669 128 669 c 0
 156 669 181 648 181 616 c 0
 181 584 156 563 128 563 c 0
 97 563 75 589 75 616 c 0
EndSplineSet
EndChar

StartChar: Ldot
Encoding: 319 319 12
Width: 625
Flags: HW
HStem: 0 31<33 57 33 57 57 95.5 274 356 356 444> 312 105<406.5 435> 652 28<33 129.451 233.838 353>
VStem: 136 89<78 604> 369 105<351.5 378.5> 557 25<258 258>
LayerCount: 2
Fore
SplineSet
33 0 m 1
 33 31 l 1
 57 31 l 2
 134 31 136 42 136 78 c 2
 136 605 l 2
 136 641 134 652 57 652 c 2
 33 652 l 1
 33 683 l 1
 68 680 146 680 185 680 c 0
 226 680 317 680 353 683 c 1
 353 652 l 1
 320 652 l 2
 225 652 225 638 225 604 c 2
 225 71 l 2
 225 38 227 31 274 31 c 2
 356 31 l 2
 532 31 546 156 557 258 c 1
 582 258 l 1
 554 0 l 1
 33 0 l 1
369 365 m 0
 369 392 391 417 422 417 c 0
 449 417 474 396 474 365 c 0
 474 334 448 312 422 312 c 0
 391 312 369 338 369 365 c 0
EndSplineSet
EndChar

StartChar: ldot
Encoding: 320 320 13
Width: 387
Flags: HW
HStem: 0 31<33 66.5> 189 105<292.5 321> 652 31<33 68>
VStem: 111 66<76 596 596 620.5> 362 105
LayerCount: 2
Fore
SplineSet
33 0 m 1
 33 31 l 1
 100 31 111 31 111 76 c 2
 111 596 l 2
 111 645 103 652 33 652 c 1
 33 683 l 1
 177 694 l 1
 177 76 l 2
 177 31 188 31 255 31 c 1
 255 0 l 1
 218 1 169 3 144 3 c 0
 119 3 66 1 33 0 c 1
255 242 m 0
 255 269 277 294 308 294 c 0
 335 294 360 273 360 242 c 0
 360 211 334 189 308 189 c 0
 277 189 255 215 255 242 c 0
EndSplineSet
EndChar

StartChar: Ncommaaccent
Encoding: 325 325 14
Width: 750
Flags: HW
HStem: 0 31<33 84.5> 652 31<33 62 33 203>
VStem: 136 28<105 625> 585 28<151 578>
LayerCount: 2
Fore
SplineSet
33 0 m 1
 33 31 l 1
 136 31 136 78 136 105 c 2
 136 627 l 2
 136 646 135 647 112 650 c 0
 97 651 77 652 62 652 c 2
 33 652 l 1
 33 683 l 1
 203 683 l 2
 222 683 223 682 232 670 c 2
 585 151 l 1
 585 578 l 2
 585 605 585 652 482 652 c 1
 482 683 l 1
 517 682 566 680 599 680 c 0
 632 680 681 682 716 683 c 1
 716 652 l 1
 613 652 613 605 613 578 c 2
 613 26 l 2
 613 7 613 0 599 0 c 0
 592 0 591 1 582 13 c 2
 174 613 l 2
 170 619 169 620 164 625 c 1
 164 105 l 2
 164 78 164 31 267 31 c 1
 267 0 l 1
 232 1 183 3 150 3 c 0
 117 3 68 1 33 0 c 1
353 -110 m 0
 353 -90 367 -73 389 -73 c 0
 412 -73 434 -93 434 -145 c 0
 434 -211 390 -281 370 -281 c 0
 367 -281 364 -277 364 -274 c 0
 364 -264 418 -228 418 -146 c 2
 418 -134 l 1
 409 -143 399 -147 390 -147 c 0
 371 -147 353 -131 353 -110 c 0
EndSplineSet
EndChar

StartChar: ncommaaccent
Encoding: 326 326 15
Width: 555
Flags: HW
HStem: 0 31<32 65.5> 400 31<32 67> 420 22<284.5 345.5>
VStem: 110 63<337 344 344 368.5> 110 69<76 260> 388 69<76 252 61 309 61 337.5>
LayerCount: 2
Fore
SplineSet
32 0 m 1xac
 32 31 l 1
 99 31 110 31 110 76 c 2xac
 110 344 l 2
 110 393 102 400 32 400 c 1
 32 431 l 1xd4
 173 442 l 1
 173 337 l 1xb4
 201 399 248 442 321 442 c 0
 379 442 412 422 426 405 c 0
 457 369 457 338 457 252 c 2
 457 61 l 2
 458 31 483 31 535 31 c 1
 535 0 l 1
 501 1 449 3 423 3 c 0
 396 3 345 1 310 0 c 1
 310 31 l 1
 377 31 388 31 388 76 c 2
 388 309 l 2
 388 366 377 420 314 420 c 0
 250 420 179 364 179 260 c 2
 179 76 l 2
 179 31 190 31 257 31 c 1
 257 0 l 1
 223 1 171 3 145 3 c 0
 118 3 67 1 32 0 c 1xac
253 -110 m 0
 253 -90 267 -73 289 -73 c 0
 312 -73 334 -93 334 -145 c 0
 334 -211 290 -281 270 -281 c 0
 267 -281 264 -277 264 -274 c 0
 264 -264 318 -228 318 -146 c 2
 318 -134 l 1
 309 -143 299 -147 290 -147 c 0
 271 -147 253 -131 253 -110 c 0
EndSplineSet
EndChar

StartChar: napostrophe
Encoding: 329 329 16
Width: 601
Flags: HW
HStem: 0 31<78 111.5> 400 31<78 113> 420 22<330.5 391.5>
VStem: 156 63<337 344 344 368.5> 156 69<76 260> 434 69<76 252 61 309 61 337.5>
LayerCount: 2
Fore
SplineSet
15 683 m 0xac
 15 709 32 736 68 736 c 0
 105 736 134 700 134 651 c 0
 134 561 58 503 42 503 c 0
 39 503 31 505 31 513 c 0
 31 524 48 525 74 555 c 0
 97 582 111 616 111 652 c 1
 105 646 93 631 67 631 c 0
 38 631 15 652 15 683 c 0xac
78 0 m 1xac
 78 31 l 1
 145 31 156 31 156 76 c 2xac
 156 344 l 2
 156 393 148 400 78 400 c 1
 78 431 l 1xd4
 219 442 l 1
 219 337 l 1xb4
 247 399 294 442 367 442 c 0
 425 442 458 422 472 405 c 0
 503 369 503 338 503 252 c 2
 503 61 l 2
 504 31 529 31 581 31 c 1
 581 0 l 1
 547 1 495 3 469 3 c 0
 442 3 391 1 356 0 c 1
 356 31 l 1
 423 31 434 31 434 76 c 2
 434 309 l 2
 434 366 423 420 360 420 c 0
 296 420 225 364 225 260 c 2
 225 76 l 2
 225 31 236 31 303 31 c 1
 303 0 l 1
 269 1 217 3 191 3 c 0
 164 3 113 1 78 0 c 1xac
EndSplineSet
EndChar

StartChar: Rcommaaccent
Encoding: 342 342 17
Width: 736
Flags: HW
HStem: -22 22<622 653.5> 0 31<35 59> 331 22<224 335 335 339 224 335> 652 31<35 59 35 349 295 349 349 350>
VStem: 138 86<78 331 353 605 605 612> 470 113 507 103<468.5 551 464 575.5> 706 26<36.2571 104.992>
LayerCount: 2
Fore
SplineSet
35 0 m 1
 35 31 l 1
 59 31 l 2
 136 31 138 42 138 78 c 2
 138 605 l 2
 138 641 136 652 59 652 c 2
 35 652 l 1
 35 683 l 1
 349 683 l 2
 496 683 610 599 610 503 c 0
 610 425 532 364 435 340 c 1
 490 321 539 288 557 224 c 2
 570 144 l 2
 584 51 592 0 641 0 c 0
 666 0 701 18 707 89 c 0
 708 96 708 105 719 105 c 0
 732 105 732 94 732 88 c 0
 732 60 715 -22 637 -22 c 0
 607 -22 552 -16 511 20 c 0
 470 58 470 98 470 163 c 0
 470 230 470 261 432 297 c 0
 397 331 355 331 339 331 c 2xbd
 224 331 l 1
 224 78 l 2
 224 42 226 31 303 31 c 2
 327 31 l 1
 327 0 l 1
 291 3 220 3 181 3 c 0
 142 3 71 3 35 0 c 1
224 353 m 1x7a
 335 353 l 2
 483 353 507 434 507 503 c 0
 507 648 395 652 305 652 c 0
 285 652 256 652 246 650 c 0
 224 647 224 635 224 612 c 2
 224 353 l 1x7a
334 -110 m 0
 334 -90 348 -73 370 -73 c 0
 393 -73 415 -93 415 -145 c 0
 415 -211 371 -281 351 -281 c 0
 348 -281 345 -277 345 -274 c 0
 345 -264 399 -228 399 -146 c 2
 399 -134 l 1
 390 -143 380 -147 371 -147 c 0
 352 -147 334 -131 334 -110 c 0
EndSplineSet
EndChar

StartChar: rcommaaccent
Encoding: 343 343 18
Width: 391
Flags: HW
HStem: 0 31<28 61.5> 400 31<28 63> 420 22<253.5 293.5>
VStem: 106 61<332 344 344 368.5> 106 66<76 78 78 232> 278 86<366 393>
LayerCount: 2
Fore
SplineSet
28 0 m 1xac
 28 31 l 1
 95 31 106 31 106 76 c 2xac
 106 344 l 2
 106 393 98 400 28 400 c 1
 28 431 l 1xd4
 167 442 l 1
 167 332 l 1xb4
 181 375 217 442 290 442 c 0
 333 442 364 413 364 381 c 0
 364 349 339 337 321 337 c 0
 299 337 278 352 278 380 c 0
 278 406 298 418 301 419 c 1
 299 420 297 420 290 420 c 0
 214 420 172 331 172 232 c 2
 172 78 l 2
 172 42 174 31 248 31 c 2
 269 31 l 1
 269 0 l 1
 229 3 182 3 142 3 c 0
 114 3 67 1 28 0 c 1xac
106 -110 m 0
 106 -90 120 -73 142 -73 c 0
 165 -73 187 -93 187 -145 c 0
 187 -211 143 -281 123 -281 c 0
 120 -281 117 -277 117 -274 c 0
 117 -264 171 -228 171 -146 c 2
 171 -134 l 1
 162 -143 152 -147 143 -147 c 0
 124 -147 106 -131 106 -110 c 0
EndSplineSet
EndChar

StartChar: Tbar
Encoding: 358 358 19
Width: 722
Flags: HW
HStem: 0 31<171 211> 3 28<171 306.231 414.769 550> 334 32<199 316 213 316 213 316 405 512 512 515> 646 31<165.5 250 470.5 555.5>
VStem: 36 25<452 452> 316 89<79 334 366 606> 660 25<452 452>
LayerCount: 2
Fore
SplineSet
36 452 m 1
 55 677 l 1
 666 677 l 1
 685 452 l 1
 660 452 l 1
 646 613 631 646 480 646 c 0
 461 646 434 646 423 644 c 0
 405 640 405 626 405 606 c 2
 405 366 l 1
 512 366 l 2
 527 366 541 365 541 350 c 0
 541 336 528 334 515 334 c 2
 405 334 l 1
 405 79 l 2
 405 45 405 31 510 31 c 2
 550 31 l 1
 550 0 l 1xbe
 509 3 406 3 360 3 c 0x7e
 314 3 212 3 171 0 c 1
 171 31 l 1
 211 31 l 2
 316 31 316 45 316 79 c 2
 316 334 l 1xbe
 206 334 l 2
 192 334 181 336 181 350 c 0
 181 364 193 366 213 366 c 2
 316 366 l 1
 316 606 l 2
 316 629 316 640 295 644 c 0
 285 646 259 646 241 646 c 0
 90 646 75 613 61 452 c 1
 36 452 l 1
EndSplineSet
EndChar

StartChar: tbar
Encoding: 359 359 20
Width: 388
Flags: MW
HStem: -11 25<186.2 288.1> 268 32<20.3833 104 173 308.11> 400 31<173 316>
VStem: 104 69<84.9384 268 300 400> 307 25<40.8 181>
LayerCount: 2
Fore
SplineSet
19 284 m 0
 19 298 31 300 51 300 c 2
 104 300 l 1
 104 400 l 1
 19 400 l 1
 19 422 l 1
 117 426 147 533 148 615 c 1
 173 615 l 1
 173 431 l 1
 316 431 l 1
 316 400 l 1
 173 400 l 1
 173 300 l 1
 287 300 l 2
 302 300 316 299 316 284 c 0
 316 270 303 268 290 268 c 2
 173 268 l 1
 173 122 l 2
 173 105 173 14 240 14 c 0
 277 14 307 52 307 126 c 2
 307 181 l 1
 332 181 l 1
 332 124 l 2
 332 60 304 -11 233 -11 c 0
 197 -11 104 1 104 124 c 2
 104 268 l 1
 44 268 l 2
 30 268 19 270 19 284 c 0
EndSplineSet
EndChar

StartChar: Uogonek
Encoding: 370 370 21
Width: 750
Flags: W
HStem: -217 46<361.9 480.7> -22 31<359.827 513.5> 652 31<33 134 227 328 479 546.661 645.917 716>
VStem: 136 89<105 651.8> 283 45<-153.8 -88.4925> 582 31<165.508 605.582>
LayerCount: 2
Fore
SplineSet
33 652 m 1
 33 683 l 1
 68 680 143 680 181 680 c 0
 219 680 293 680 328 683 c 1
 328 652 l 1
 304 652 l 2
 227 652 225 641 225 605 c 2
 225 224 l 2
 225 34 343 9 390 9 c 0
 485 9 582 89 582 231 c 2
 582 578 l 2
 582 605 582 652 479 652 c 1
 479 683 l 1
 515 682 563 680 598 680 c 0
 632 680 680 682 716 683 c 1
 716 652 l 1
 613 652 613 607 613 574 c 2
 613 254 l 2
 613 214 613 205 610 185 c 0
 593 71 503 -22 388 -22 c 0
 380 -22 373 -21 366 -21 c 1
 363 -24 l 2
 344 -42 328 -66 328 -94 c 0
 328 -140 373 -171 410 -171 c 0
 465 -171 473 -116 487 -116 c 0
 489 -116 491 -117 494 -119 c 1
 495 -121 496 -123 496 -127 c 0
 496 -151 460 -217 391 -217 c 0
 339 -217 283 -180 283 -118 c 0
 283 -97 291 -60 335 -16 c 1
 223 7 136 105 136 228 c 2
 136 605 l 2
 136 641 134 652 57 652 c 2
 33 652 l 1
EndSplineSet
EndChar

StartChar: uogonek
Encoding: 371 371 22
Width: 555
Flags: MW
HStem: -217 46<410.9 529.7> -11 22<157.8 334.8> 0 31<495.25 535> 400 31<32 72.0909 310 350.091>
VStem: 110 69<56.6 397> 332 45<-153.8 -88.6629> 388 69<52.9 393>
LayerCount: 2
Fore
SplineSet
32 400 m 1
 32 431 l 1
 179 442 l 1
 179 110 l 2
 179 58 183 11 267 11 c 0
 340 11 388 79 388 166 c 2
 388 344 l 2
 388 393 380 400 310 400 c 1
 310 431 l 1
 457 442 l 1
 457 87 l 2
 457 38 465 31 535 31 c 1
 535 0 l 1
 429 -8 l 1
 424 -12 419 -17 412 -24 c 0
 393 -42 377 -66 377 -94 c 0
 377 -140 422 -171 459 -171 c 0
 514 -171 522 -116 536 -116 c 0
 538 -116 540 -117 543 -119 c 1
 544 -121 545 -123 545 -127 c 0
 545 -151 509 -217 440 -217 c 0
 388 -217 332 -180 332 -118 c 0
 332 -96 340 -56 391 -10 c 1
 391 79 l 1
 362 17 318 -11 262 -11 c 0
 110 -11 110 80 110 158 c 2
 110 308 l 2
 110 397 110 400 32 400 c 1
EndSplineSet
EndChar

StartChar: uni0181
Encoding: 385 385 23
Width: 818
Flags: W
HStem: 0 31<147 248 335 640.9> 344 22<333 622.3> 652 31<76.1 271.1 335 632.1>
VStem: 21 92<542.5 596.765> 250 83<31.2 344 366 641> 638 97<430.8 582.9> 662 100<91.7 271.1>
LayerCount: 2
Fore
SplineSet
21 578 m 0xfa
 21 641 92 683 175 683 c 2
 513 683 l 2
 643 683 735 601 735 514 c 0xfc
 735 440 666 376 569 357 c 1
 680 345 762 270 762 183 c 0
 762 89 672 0 539 0 c 2
 147 0 l 1
 147 31 l 1
 171 31 l 2
 248 31 250 42 250 78 c 2
 250 605 l 2
 250 641 248 652 171 652 c 0
 98 652 76 630 66 622 c 1
 106 618 113 590 113 575 c 0
 113 550 92 530 67 530 c 0
 40 530 21 550 21 578 c 0xfa
333 71 m 2
 333 38 335 31 382 31 c 2
 507 31 l 2
 610 31 662 113 662 184 c 0xfa
 662 251 620 344 521 344 c 2
 333 344 l 1
 333 71 l 2
333 366 m 1
 478 366 l 2
 589 366 638 450 638 514 c 0xfc
 638 567 603 652 506 652 c 2
 382 652 l 2
 335 652 333 645 333 612 c 2
 333 366 l 1
EndSplineSet
EndChar

StartChar: uni0182
Encoding: 386 386 24
Width: 683
Flags: HW
HStem: 0 31<35 59 59 97.5 273 362 362 388 35 59> 341 26<227 362 224 396> 652 31<35 525 35 59 267.5 306 306 388>
VStem: 35 192<367 683 367 683> 138 89<367 605 367 605 367 623> 521 103<161.5 209.5>
LayerCount: 2
Fore
SplineSet
35 0 m 1
 35 31 l 1xf4
 59 31 l 2
 136 31 138 42 138 78 c 2
 138 605 l 2xec
 138 641 136 652 59 652 c 2
 35 652 l 1xf4
 35 683 l 1
 525 683 l 1
 539 513 l 1
 514 513 l 1
 505 614 499 652 388 652 c 2
 306 652 l 2
 229 652 227 641 227 605 c 2
 227 367 l 1
 396 367 l 2
 516 367 624 286 624 186 c 0
 624 88 525 0 388 0 c 2
 35 0 l 1
224 71 m 2
 224 38 226 31 273 31 c 2
 362 31 l 2
 521 31 521 137 521 186 c 0
 521 233 521 341 362 341 c 2
 224 341 l 1
 224 71 l 2
EndSplineSet
EndChar

StartChar: uni0183
Encoding: 387 387 25
Width: 514
Flags: HW
HStem: -11 22<230.5 280 230.5 316.5> 0 21G<65 90 65 65> 420 22<251 285.5> 652 31<171.5 210 210 310>
VStem: 65 66<377 605 377 683> 397 83<198.5 237.5>
LayerCount: 2
Fore
SplineSet
65 0 m 1
 65 683 l 1x7c
 447 683 l 1
 461 513 l 1
 436 513 l 1
 427 614 421 652 310 652 c 2
 210 652 l 2
 133 652 131 641 131 605 c 2
 131 377 l 1
 147 395 190 442 268 442 c 0
 382 442 480 343 480 216 c 0
 480 87 376 -11 257 -11 c 0xbc
 183 -11 141 39 126 62 c 1
 90 0 l 1
 65 0 l 1
134 114 m 2
 134 96 134 93 148 72 c 0
 172 35 208 11 253 11 c 0
 307 11 345 44 366 75 c 0
 395 120 397 180 397 217 c 0
 397 258 394 315 368 356 c 0
 344 394 308 420 263 420 c 0
 239 420 184 412 145 356 c 0
 134 340 134 339 134 320 c 2
 134 114 l 2
EndSplineSet
EndChar

StartChar: uni0184
Encoding: 388 388 26
Width: 682
Flags: HW
HStem: 0 31<35 59 59 97.5 273 362 362 388 35 59> 341 26<227 362> 663 20G<227 227>
VStem: 138 89<78 683 367 683> 521 103<161.5 209.5>
LayerCount: 2
Fore
SplineSet
35 0 m 1
 35 31 l 1
 59 31 l 2
 136 31 138 42 138 78 c 2
 138 367 l 1
 35 505 l 1
 227 683 l 1
 227 367 l 1
 396 367 l 2
 516 367 624 286 624 186 c 0
 624 88 525 0 388 0 c 2
 35 0 l 1
224 71 m 2
 224 38 226 31 273 31 c 2
 362 31 l 2
 521 31 521 137 521 186 c 0
 521 233 521 341 362 341 c 2
 224 341 l 1
 224 71 l 2
EndSplineSet
EndChar

StartChar: uni0185
Encoding: 389 389 27
Width: 556
Flags: HW
HStem: -11 22<272.5 322 272.5 358.5> 0 21G<107 132 107 107> 420 22<293 327.5> 663 20G<173 173>
VStem: 107 66<0 683 370 683> 439 83<198.5 237.5>
LayerCount: 2
Fore
SplineSet
28 505 m 1x7c
 173 683 l 1
 173 377 l 1
 189 395 232 442 310 442 c 0
 424 442 522 343 522 216 c 0
 522 87 418 -11 299 -11 c 0xbc
 225 -11 183 39 168 62 c 1
 132 0 l 1
 107 0 l 1
 107 370 l 1
 28 505 l 1x7c
176 114 m 2
 176 96 176 93 190 72 c 0
 214 35 250 11 295 11 c 0
 349 11 387 44 408 75 c 0
 437 120 439 180 439 217 c 0
 439 258 436 315 410 356 c 0
 386 394 350 420 305 420 c 0
 281 420 226 412 187 356 c 0
 176 340 176 339 176 320 c 2
 176 114 l 2
EndSplineSet
EndChar

StartChar: uni0187
Encoding: 391 391 28
Width: 756
Flags: HW
HStem: -22 31<336.7 557.7> 674 31<335.7 528.8> 846 23<702.7 771.329>
VStem: 56 103<72.9 607.2> 640 25<681 865.6> 737 92<761.9 832.1>
LayerCount: 2
Fore
SplineSet
56 342 m 0
 56 546 217 705 404 705 c 0
 500 705 551 655 588 619 c 1
 638 694 639 695 640 696 c 1
 641 839 703 869 745 869 c 0
 788 869 829 839 829 798 c 0
 829 770 808 752 783 752 c 0
 758 752 737 770 737 797 c 0
 737 824 756 836 769 842 c 1
 761 844 752 846 743 846 c 0
 712 846 665 823 665 681 c 2
 665 444 l 2
 665 423 665 420 649 420 c 0
 635 420 635 423 633 437 c 0
 613 583 524 674 415 674 c 0
 354 674 159 640 159 341 c 0
 159 43 355 9 416 9 c 0
 525 9 632 91 640 234 c 0
 641 244 641 250 652 250 c 0
 665 250 665 243 665 233 c 0
 665 117 567 -22 404 -22 c 0
 218 -22 56 135 56 342 c 0
EndSplineSet
EndChar

StartChar: uni018A
Encoding: 394 394 29
Width: 874
Flags: W
HStem: 0 31<146 247 337 616.3> 652 31<75.1 270.1 337 564.6>
VStem: 21 92<542.5 596.765> 249 86<31.2 641> 718 100<191.7 437.4>
LayerCount: 2
Fore
SplineSet
21 578 m 0
 21 641 92 683 175 683 c 2
 512 683 l 2
 683 683 818 526 818 336 c 0
 818 148 680 0 512 0 c 2
 146 0 l 1
 146 31 l 1
 170 31 l 2
 247 31 249 42 249 78 c 2
 249 605 l 2
 249 641 247 652 170 652 c 0
 97 652 76 630 66 622 c 1
 106 618 113 590 113 575 c 0
 113 550 92 530 67 530 c 0
 40 530 21 550 21 578 c 0
335 71 m 2
 335 38 337 31 384 31 c 2
 485 31 l 2
 586 31 643 89 663 116 c 0
 699 165 718 225 718 336 c 0
 718 414 709 500 666 559 c 0
 615 630 546 652 484 652 c 2
 384 652 l 2
 337 652 335 645 335 612 c 2
 335 71 l 2
EndSplineSet
EndChar

StartChar: uni018B
Encoding: 395 395 30
Width: 668
Flags: HW
HStem: 0 31<209.5 393 304 393 393 416.5 607 631> 341 26<270 304 304 439 270 442> 652 31<222.5 278 278 360 568.5 607 607 631>
VStem: 42 103<161.5 209.5 161.5 236> 439 89<367 605> 439 192
LayerCount: 2
Fore
SplineSet
42 186 m 0
 42 286 150 367 270 367 c 2
 439 367 l 1
 439 605 l 2
 439 641 437 652 360 652 c 2
 278 652 l 2
 167 652 161 614 152 513 c 1
 127 513 l 1
 141 683 l 1
 631 683 l 1xf4
 631 652 l 1xf4
 607 652 l 2
 530 652 528 641 528 605 c 2
 528 78 l 2xf8
 528 42 530 31 607 31 c 2
 631 31 l 1
 631 0 l 1
 278 0 l 2
 141 0 42 88 42 186 c 0
145 186 m 0
 145 137 145 31 304 31 c 2
 393 31 l 2
 440 31 442 38 442 71 c 2
 442 341 l 1
 304 341 l 2
 145 341 145 233 145 186 c 0
EndSplineSet
EndChar

StartChar: uni018C
Encoding: 396 396 31
Width: 555
Flags: HW
HStem: -11 22<228.5 272.5 228.5 278> -11 42<453.492 473.545> 420 22<234 278.5> 652 31<148.5 204 204 304>
VStem: 34 83<193.5 232.5 193.5 279.5> 383 66<380 606 606 606>
LayerCount: 2
Fore
SplineSet
34 215 m 0xbc
 34 344 139 442 257 442 c 0
 311 442 354 416 383 380 c 1
 383 606 l 2
 382 631 377 642 358 648 c 0
 346 651 329 652 304 652 c 2
 204 652 l 2
 93 652 87 614 78 513 c 1
 53 513 l 1
 67 683 l 1
 449 683 l 1
 449 87 l 2
 449 38 457 31 527 31 c 1x7c
 527 0 l 1
 380 -11 l 1
 380 55 l 1
 355 23 310 -11 246 -11 c 0
 132 -11 34 88 34 215 c 0xbc
117 214 m 0
 117 173 120 116 146 75 c 0
 170 37 206 11 251 11 c 0xbc
 294 11 339 33 369 81 c 0
 380 98 380 100 380 118 c 2
 380 323 l 2
 380 341 380 343 369 360 c 0
 338 405 296 420 261 420 c 0
 207 420 169 387 148 356 c 0
 119 311 117 251 117 214 c 0
EndSplineSet
EndChar

StartChar: uni018D
Encoding: 397 397 32
Width: 495
Flags: W
HStem: -120 36<307.555 421.7> 522 26<153.7 377.3>
VStem: 58 70<190.7 476.9> 372 75<196.7 425> 417 23<-56.3195 35.6>
LayerCount: 2
Fore
SplineSet
58 335 m 0xe8
 58 455 144 548 249 548 c 0
 363 548 447 441 447 315 c 0xf0
 447 224 402 136 327 101 c 0
 318 97 309 94 300 90 c 1
 351 56 440 31 440 -37 c 0
 440 -65 423 -120 355 -120 c 0
 276 -120 77 -56 100 3 c 0
 107 22 133 29 166 13 c 0
 205 -6 219 -42 246 -56 c 0
 299 -84 344 -84 371 -84 c 0
 410 -84 417 -47 417 -32 c 0
 417 20 265 69 200 105 c 0
 128 145 58 224 58 335 c 0xe8
128 369 m 0
 128 229 257 113 276 113 c 0
 295 113 372 150 372 308 c 0
 372 398 347 522 246 522 c 0
 175 522 128 452 128 369 c 0
EndSplineSet
EndChar

StartChar: uni0191
Encoding: 401 401 33
Width: 652
Flags: W
HStem: -205 23<41.9873 141.3> 325 31<225 311> 649 31<33 157.1 227 582>
VStem: -29 91<-148.4 -88.6> 136 89<-119.1 325 356 638> 417 25<208 318.5 363.8 473> 585 25<455 635.602>
LayerCount: 2
Fore
SplineSet
-29 -126 m 0
 -29 -96 -6 -79 16 -79 c 0
 40 -79 62 -97 62 -125 c 0
 62 -143 53 -163 26 -170 c 1
 43 -179 59 -182 73 -182 c 0
 133 -182 136 -90 136 7 c 2
 136 602 l 2
 136 638 134 649 57 649 c 2
 33 649 l 1
 33 680 l 1
 582 680 l 1
 610 455 l 1
 585 455 l 1
 569 593 544 649 394 649 c 2
 274 649 l 2
 227 649 225 642 225 609 c 2
 225 356 l 1
 311 356 l 2
 407 356 417 389 417 473 c 1
 442 473 l 1
 442 208 l 1
 417 208 l 1
 417 293 407 325 311 325 c 2
 225 325 l 1
 225 8 l 1
 225 7 l 2
 222 -178 126 -205 75 -205 c 0
 25 -205 -29 -177 -29 -126 c 0
EndSplineSet
EndChar

StartChar: uni0193
Encoding: 403 403 34
Width: 784
Flags: HW
HStem: -22 31<337.5 465.02> 242 28<452 601 650.5 652 663.113 735> 674 31<338 532.7> 846 23<704 771.329>
VStem: 56 103<75.5 608.5> 577 89<9 231> 640 26<689.464 821.8> 737 92<761.9 832.1>
LayerCount: 2
Fore
SplineSet
56 342 m 0xfd
 56 547 218 705 404 705 c 0
 503 705 557 651 589 619 c 1
 639 694 640 695 640 696 c 0
 641 839 703 869 745 869 c 0
 788 869 829 839 829 798 c 0
 829 770 808 752 783 752 c 0
 758 752 737 770 737 797 c 0
 737 824 756 836 769 842 c 1
 761 844 752 846 743 846 c 0
 713 846 669 825 665 697 c 1
 666 693 666 688 666 681 c 2
 666 444 l 2xfb
 666 423 666 420 650 420 c 0
 636 420 636 423 634 437 c 0
 614 584 523 674 416 674 c 0
 356 674 159 641 159 342 c 0
 159 44 357 9 422 9 c 0
 450 9 577 18 577 130 c 2
 577 194 l 2
 577 231 574 242 484 242 c 2
 452 242 l 1
 452 273 l 1
 488 270 573 270 613 270 c 0
 643 270 698 272 735 273 c 1
 735 242 l 1
 670 242 666 237 666 198 c 2
 666 24 l 2
 666 9 666 1 657 1 c 0
 646 1 606 41 593 63 c 1
 559 4 479 -22 406 -22 c 0
 216 -22 56 137 56 342 c 0xfd
EndSplineSet
EndChar

StartChar: uni0194
Encoding: 404 404 35
Width: 751
Flags: HW
HStem: -217 29<364.5 402 364.5 424> 652 28<19 102.136 214.251 289 519 570.287 665.547 730> 663 20G<19 19 289 289 519 519 730 730>
VStem: 280 29<-122 -72.5 -123 -68.5> 441 77<-110 -83.5>
LayerCount: 2
Fore
SplineSet
19 652 m 1xd8
 19 683 l 1xb8
 55 682 98 680 146 680 c 0xd8
 184 680 253 680 289 683 c 1xb8
 289 652 l 1
 264 652 207 652 207 623 c 0
 207 621 207 619 213 605 c 2
 404 172 l 1
 587 582 l 2
 589 588 592 594 592 602 c 0
 592 625 571 651 519 652 c 1xd8
 519 683 l 1xb8
 545 682 603 680 633 680 c 0xd8
 659 680 699 681 730 683 c 1xb8
 730 652 l 1
 662 651 635 622 621 585 c 2
 425 131 l 1
 477 50 518 -4 518 -72 c 0
 518 -148 462 -217 386 -217 c 0
 322 -217 280 -159 280 -85 c 0
 280 -52 284 -7 346 79 c 1
 117 614 l 2
 103 652 84 652 19 652 c 1xd8
309 -88 m 0xd8
 309 -158 347 -188 382 -188 c 0
 422 -188 441 -153 441 -111 c 0
 441 -56 401 -7 370 45 c 1
 315 -23 309 -57 309 -88 c 0xd8
EndSplineSet
EndChar

StartChar: uni0196
Encoding: 406 406 36
Width: 417
Flags: HW
HStem: -25 21G<235 317> 652 36<33 88.6667> 674 20G<200 200>
VStem: 111 89<185 596 596 620.5> 360 30<60.5 93>
LayerCount: 2
Fore
SplineSet
33 652 m 1xd8
 33 683 l 1
 200 694 l 1
 200 181 l 2
 200 -9 278 6 295 6 c 0
 317 6 360 28 360 93 c 1xb8
 390 94 l 1
 390 13 341 -25 293 -25 c 0
 177 -25 111 44 111 185 c 2
 111 596 l 2
 111 645 103 652 33 652 c 1xd8
EndSplineSet
EndChar

StartChar: uni0197
Encoding: 407 407 37
Width: 361
Flags: HW
HStem: 0 21G<28 28 333 333> 3 28<28 128.917 232.083 333> 326 32<28 136 28 136 225 333> 652 28<28 128.917 232.083 333> 663 20G<28 28 333 333>
VStem: 136 89<78 326 358 605>
LayerCount: 2
Fore
SplineSet
28 0 m 1xb4
 28 31 l 1
 54 31 l 2
 133 31 136 42 136 78 c 2
 136 326 l 1
 28 326 l 1x74
 28 358 l 1
 136 358 l 1
 136 605 l 2
 136 641 133 652 54 652 c 2
 28 652 l 1x74
 28 683 l 1x6c
 63 680 142 680 181 680 c 0x74
 219 680 298 680 333 683 c 1x6c
 333 652 l 1
 307 652 l 2
 228 652 225 641 225 605 c 2
 225 358 l 1
 333 358 l 1
 333 326 l 1
 225 326 l 1
 225 78 l 2
 225 42 228 31 307 31 c 2
 333 31 l 1x74
 333 0 l 1xb4
 298 3 219 3 180 3 c 0x74
 142 3 63 3 28 0 c 1xb4
EndSplineSet
EndChar

StartChar: uni0198
Encoding: 408 408 38
Width: 765
Flags: MW
HStem: 0 31<33 134 227 328 478 521.543 665.8 736> 652 28<33 157.1 227 328> 668 22<658.135 711.336>
VStem: 136 89<31.2 253 287 641> 677 87<589.2 662>
LayerCount: 2
Fore
SplineSet
33 0 m 1
 33 31 l 1
 57 31 l 2
 134 31 136 42 136 78 c 2
 136 605 l 2
 136 641 134 652 57 652 c 2
 33 652 l 1
 33 683 l 1
 68 680 143 680 181 680 c 0
 219 680 293 680 328 683 c 1
 328 652 l 1
 304 652 l 2
 227 652 225 641 225 605 c 2
 225 287 l 1
 620 663 l 2
 641 683 657 690 682 690 c 0
 732 690 764 663 764 624 c 0
 764 591 738 579 721 579 c 0
 699 579 677 597 677 623 c 0
 677 653 705 664 707 664 c 1
 706 665 697 668 683 668 c 0
 670 668 660 665 650 658 c 1
 400 419 l 1
 631 79 l 2
 661 35 682 31 736 31 c 1
 736 0 l 1
 694 2 656 3 621 3 c 0
 583 3 513 3 478 0 c 1
 478 31 l 1
 498 31 537 31 537 61 c 0
 537 73 528 86 522 95 c 2
 341 363 l 1
 225 253 l 1
 225 78 l 2
 225 42 227 31 304 31 c 2
 328 31 l 1
 328 0 l 1
 293 3 218 3 180 3 c 0
 142 3 68 3 33 0 c 1
EndSplineSet
EndChar

StartChar: uni019C
Encoding: 412 412 39
Width: 1056
Flags: HW
HStem: -23 33<199.2 416.2 583.3 773.1> 0 31<927.1 1037> 652 31<20 123.238 226 315 381 484.238 587 676 742 845.238 948 1037>
VStem: 122 89<94.9 645> 483 90<93 655.5> 844 90<26.2 645>
LayerCount: 2
Fore
SplineSet
905 3 m 0
 877 3 854 1 844 0 c 1x7c
 844 115 l 1
 806 34 747 -23 660 -23 c 0
 601 -23 505 -6 486 123 c 1
 464 66 407 -23 298 -23 c 0
 222 -23 179 7 160 33 c 0
 122 87 122 133 122 260 c 2
 123 609 l 2
 122 645 109 652 34 652 c 2
 20 652 l 1
 20 683 l 1
 71 681 123 680 174 680 c 0
 231 680 273 682 315 683 c 1
 315 652 l 1
 299 652 l 2
 226 652 213 645 212 610 c 2
 211 176 l 2
 211 91 224 10 307 10 c 0
 391 10 482 93 482 248 c 2
 483 609 l 2
 482 645 470 652 395 652 c 2
 381 652 l 1
 381 683 l 1
 432 681 484 680 535 680 c 0
 592 680 634 682 676 683 c 1
 676 652 l 1
 660 652 l 2
 587 652 574 645 573 610 c 2xbc
 572 176 l 2
 572 91 587 10 668 10 c 0xbc
 751 10 844 93 844 248 c 2
 845 609 l 2
 844 645 831 652 756 652 c 2
 742 652 l 1
 742 683 l 1
 793 681 845 680 896 680 c 0
 953 680 995 682 1037 683 c 1
 1037 652 l 1
 1021 652 l 2
 948 652 936 645 935 610 c 2
 934 73 l 2
 935 37 949 31 1022 31 c 2
 1037 31 l 1
 1037 0 l 1
 984 2 935 3 905 3 c 0
EndSplineSet
EndChar

StartChar: uni019D
Encoding: 413 413 40
Width: 750
Flags: W
HStem: -205 23<40.2524 128.8> 0 21G<595.5 606> 652 31<33 126.081 482 551.434 646.566 716>
VStem: -29 91<-148.4 -88.6> 136 28<-117.4 625> 585 28<151 605.582>
LayerCount: 2
Fore
SplineSet
-29 -126 m 0
 -29 -96 -6 -79 16 -79 c 0
 40 -79 62 -97 62 -125 c 0
 62 -143 53 -163 26 -170 c 1
 43 -179 53 -182 67 -182 c 0
 128 -182 136 -88 136 10 c 2
 136 627 l 2
 136 646 135 647 112 650 c 0
 97 651 77 652 62 652 c 2
 33 652 l 1
 33 683 l 1
 203 683 l 2
 222 683 223 682 232 670 c 2
 585 151 l 1
 585 578 l 2
 585 605 585 652 482 652 c 1
 482 683 l 1
 517 682 566 680 599 680 c 0
 632 680 681 682 716 683 c 1
 716 652 l 1
 613 652 613 605 613 578 c 2
 613 26 l 2
 613 7 613 0 599 0 c 0
 592 0 591 1 582 13 c 2
 174 613 l 2
 170 619 169 620 164 625 c 1
 164 10 l 2
 164 -180 115 -205 69 -205 c 0
 19 -205 -29 -177 -29 -126 c 0
EndSplineSet
EndChar

StartChar: uni019F
Encoding: 415 415 41
Width: 777
Flags: HW
HStem: -22 26<343 433 343 479> 321 40<159 617 159 618> 680 25<347 431>
VStem: 56 103<321 321 321 361 321 442> 618 103<361 361>
LayerCount: 2
Fore
SplineSet
56 339 m 0
 56 545 209 705 388 705 c 0
 570 705 721 543 721 339 c 0
 721 137 570 -22 388 -22 c 0
 210 -22 56 134 56 339 c 0
159 321 m 1
 170 84 297 4 389 4 c 0
 477 4 606 81 617 321 c 1
 159 321 l 1
159 361 m 1
 618 361 l 1
 615 610 474 680 388 680 c 0
 306 680 162 613 159 361 c 1
EndSplineSet
EndChar

StartChar: uni01A2
Encoding: 418 418 42
Width: 852
Flags: W
HStem: -200 31<575 680 775 880> -197 28<575 703.7 751.3 880> -22 26<263.2 482.9> 680 25<279.1 450.7>
VStem: 55 103<72.5 606.8> 511 89<73 547> 683 89<-168.8 637>
LayerCount: 2
Fore
SplineSet
55 339 m 0xbe
 55 545 208 705 387 705 c 0
 460 705 527 635 597 635 c 0
 685 635 735 706 772 706 c 1
 772 -122 l 2
 772 -158 775 -169 854 -169 c 2
 880 -169 l 1
 880 -200 l 1xbe
 845 -197 766 -197 727 -197 c 0x7e
 689 -197 610 -197 575 -200 c 1
 575 -169 l 1
 601 -169 l 2
 680 -169 683 -158 683 -122 c 2
 683 605 l 2
 683 637 637 612 622 597 c 0
 602 577 600 547 600 547 c 1
 600 58 l 1
 543 10 464 -22 387 -22 c 0
 209 -22 55 134 55 339 c 0xbe
158 353 m 0
 158 92 292 4 388 4 c 0
 461 4 491 48 511 73 c 1
 511 614 l 1
 475 660 436 680 387 680 c 0
 304 680 158 612 158 353 c 0
EndSplineSet
EndChar

StartChar: uni01A3
Encoding: 419 419 43
Width: 611
Flags: W
HStem: -199 31<397 480.505 536.149 619> -13 24<188.4 330.1> 427 21<199.1 309.6>
VStem: 38 83<48.7 391.9> 348 66<48 355.724> 475 66<-181.5 394>
LayerCount: 2
Fore
SplineSet
38 219 m 0
 38 352 153 448 268 448 c 0
 315 448 359 415 404 415 c 0
 461 415 517 448 541 448 c 1
 541 -123 l 2
 541 -168 552 -168 619 -168 c 1
 619 -199 l 1
 582 -198 533 -196 508 -196 c 0
 483 -196 430 -198 397 -199 c 1
 397 -168 l 1
 464 -168 475 -168 475 -123 c 2
 475 384 l 1
 473 394 455 387 443 379 c 0
 420 364 414 350 414 337 c 2
 414 39 l 1
 378 8 326 -13 268 -13 c 0
 154 -13 38 88 38 219 c 0
121 228 m 0
 121 61 207 11 269 11 c 0
 316 11 335 32 348 48 c 1
 348 385 l 1
 325 415 300 427 268 427 c 0
 215 427 121 395 121 228 c 0
EndSplineSet
EndChar

StartChar: uni01A4
Encoding: 420 420 44
Width: 791
Flags: HW
HStem: 0 31<146 247 340 441> 3 28<146 270.1 316.9 441> 316 26<338 663> 652 31<72.5 270.1 337 636>
VStem: 21 92<542.5 596.765> 249 89<42 316 342 641> 632 103<435.9 560.7>
LayerCount: 2
Fore
SplineSet
21 578 m 0xbe
 21 641 92 683 175 683 c 2
 499 683 l 2
 636 683 735 595 735 497 c 0
 735 397 627 316 507 316 c 2
 338 316 l 1
 338 78 l 2
 338 42 340 31 417 31 c 2
 441 31 l 1
 441 0 l 1xbe
 406 3 331 3 293 3 c 0x7e
 255 3 181 3 146 0 c 1
 146 31 l 1
 170 31 l 2
 247 31 249 42 249 78 c 2
 249 605 l 2
 249 641 247 652 170 652 c 0
 104 652 76 630 66 622 c 1
 106 618 113 590 113 575 c 0
 113 550 92 530 67 530 c 0
 40 530 21 550 21 578 c 0xbe
335 342 m 1
 473 342 l 2
 632 342 632 450 632 497 c 0
 632 546 632 652 473 652 c 2
 384 652 l 2
 337 652 335 645 335 612 c 2
 335 342 l 1
EndSplineSet
EndChar

StartChar: uni01A6
Encoding: 422 422 45
Width: 722
Flags: W
HStem: -177 22<598 673.5> 0 31<35 136 226 327> 3 28<35 159.1 202.9 327> 331 22<224 382.116> 580 32<228.927 434.137> 652 28<35 159.1 234 330>
VStem: 138 86<31.2 331 353 566.5 611 641> 470 87<63 202.139> 507 103<383.3 597.8>
LayerCount: 2
Fore
SplineSet
35 0 m 1xdf
 35 31 l 1
 59 31 l 2
 136 31 138 42 138 78 c 2
 138 605 l 2
 138 641 136 652 59 652 c 2
 35 652 l 1
 35 683 l 1
 70 680 145 680 183 680 c 0
 221 680 295 680 330 683 c 1
 330 652 l 1
 306 652 l 2
 234 652 227 642 227 611 c 1
 349 612 l 2
 496 613 610 569 610 473 c 0xde80
 610 395 532 364 435 340 c 1
 490 321 557 267 557 186 c 2
 570 -11 l 2
 576 -105 592 -155 641 -155 c 0
 666 -155 701 -137 707 -66 c 0
 708 -59 708 -50 719 -50 c 0
 732 -50 732 -61 732 -67 c 0
 732 -95 715 -177 637 -177 c 0
 607 -177 552 -171 511 -135 c 0
 470 -97 470 -2 470 63 c 0
 470 130 470 261 432 297 c 0
 397 331 355 331 339 331 c 2
 224 331 l 1
 224 78 l 2
 224 42 226 31 303 31 c 2
 327 31 l 1
 327 0 l 1xdf
 291 3 220 3 181 3 c 0xbf
 142 3 71 3 35 0 c 1xdf
224 353 m 1
 335 353 l 2
 483 353 507 404 507 473 c 0
 507 588 395 580 305 580 c 0
 285 580 256 580 246 578 c 0
 224 575 224 563 224 540 c 2
 224 353 l 1
EndSplineSet
EndChar

StartChar: uni01A9
Encoding: 425 425 46
Width: 722
Flags: HW
HStem: 0 42<120 359 359 455.5> 652 31<169 379 169 169>
LayerCount: 2
Fore
SplineSet
56 667 m 0
 56 682 67 683 78 683 c 2
 638 683 l 1
 666 458 l 1
 640 458 l 1
 618 630 560 652 379 652 c 2
 169 652 l 1
 365 368 l 2
 374 355 379 348 379 342 c 0
 379 335 373 328 362 315 c 2
 120 42 l 1
 359 42 l 2
 552 42 617 55 640 237 c 1
 666 237 l 1
 638 0 l 1
 77 0 l 2
 69 0 57 2 57 12 c 0
 57 19 64 26 69 32 c 2
 305 298 l 1
 295 311 286 325 277 339 c 2
 66 644 l 2
 61 651 56 659 56 667 c 0
EndSplineSet
EndChar

StartChar: uni01AC
Encoding: 428 428 47
Width: 722
Flags: HW
HStem: 0 21G<171 171 550 550> 3 28<171 306.231 414.769 550> 524 153<53.5 666> 646 31<134.5 666 175 241 470.5 555.5>
VStem: 21 92<558 576.5 556.5 603.5> 316 89<79 606>
LayerCount: 2
Fore
SplineSet
21 572 m 0
 21 635 92 677 175 677 c 2x6c
 666 677 l 1
 685 452 l 1
 660 452 l 1
 646 613 631 646 480 646 c 0
 461 646 434 646 423 644 c 0
 405 640 405 626 405 606 c 2
 405 79 l 2
 405 45 405 31 510 31 c 2
 550 31 l 1x6c
 550 0 l 1xac
 509 3 406 3 360 3 c 0x6c
 314 3 212 3 171 0 c 1xac
 171 31 l 1
 211 31 l 2
 316 31 316 45 316 79 c 2
 316 606 l 2
 316 629 316 640 295 644 c 0
 285 646 259 646 241 646 c 0
 225 646 184 647 171 646 c 0x5c
 98 646 76 624 66 616 c 1
 106 612 113 584 113 569 c 0
 113 544 92 524 67 524 c 0
 40 524 21 544 21 572 c 0
EndSplineSet
EndChar

StartChar: uni01AE
Encoding: 430 430 48
Width: 722
Flags: W
HStem: -205 23<399.7 499.013> 646 31<55 310.576 406.585 666>
VStem: 36 25<454.166 664.256> 316 89<-90 640.7> 479 91<-148.4 -88.6> 660 25<452 662.09>
LayerCount: 2
Fore
SplineSet
36 452 m 1
 55 677 l 1
 666 677 l 1
 685 452 l 1
 660 452 l 1
 646 613 631 646 480 646 c 0
 461 646 434 646 423 644 c 0
 405 640 405 626 405 606 c 2
 405 6 l 2
 405 -90 408 -182 468 -182 c 0
 482 -182 498 -179 515 -170 c 1
 488 -163 479 -143 479 -125 c 0
 479 -97 501 -79 525 -79 c 0
 547 -79 570 -96 570 -126 c 0
 570 -177 516 -205 466 -205 c 0
 415 -205 319 -178 316 6 c 2
 316 606 l 2
 316 629 316 640 295 644 c 0
 285 646 259 646 241 646 c 0
 90 646 75 613 61 452 c 1
 36 452 l 1
EndSplineSet
EndChar

StartChar: uni01B1
Encoding: 433 433 49
Width: 722
Flags: HW
HStem: 0 22<314 407 314 446.5> 640 65<124 166 166 230 230 233 488 555 488 488>
VStem: 55 103<182.5 324 171 325.5> 55 207 459 207 563 103<182 322.5>
LayerCount: 2
Fore
SplineSet
44 543 m 1
 77 705 l 1
 230 705 l 2
 254 705 262 704 262 682 c 0xd8
 262 546 158 398 158 250 c 0
 158 92 268 22 360 22 c 0
 454 22 563 93 563 250 c 0xe4
 563 395 459 546 459 683 c 0
 459 704 469 705 484 705 c 2
 644 705 l 1
 677 543 l 1
 651 543 l 1
 631 637 637 640 555 640 c 2
 488 640 l 1
 526 498 666 400 666 250 c 0
 666 114 533 0 360 0 c 0
 186 0 55 115 55 250 c 0
 55 401 195 499 233 640 c 1
 166 640 l 2
 82 640 89 636 69 543 c 1xe8
 44 543 l 1
EndSplineSet
EndChar

StartChar: uni01B2
Encoding: 434 434 50
Width: 724
Flags: W
HStem: -22 31<269.9 444.1> 652 31<33 134 227 328> 674 23<525.671 594.3>
VStem: 136 89<87 651.8> 468 92<589.9 660.1> 626 31<420.65 697.6>
LayerCount: 2
Fore
SplineSet
33 652 m 1xdc
 33 683 l 1
 68 680 143 680 181 680 c 0
 219 680 293 680 328 683 c 1
 328 652 l 1
 304 652 l 2xdc
 227 652 225 641 225 605 c 2
 225 224 l 2
 225 34 284 9 331 9 c 0
 418 9 510 107 554 184 c 0
 577 223 617 273 626 513 c 0
 626 655 585 674 554 674 c 0
 545 674 536 672 528 670 c 1
 541 664 560 652 560 625 c 0
 560 598 539 580 514 580 c 0
 489 580 468 598 468 626 c 0
 468 667 509 697 552 697 c 0xbc
 594 697 656 667 657 524 c 0
 647 259 606 206 580 163 c 0
 530 82 434 -22 329 -22 c 0
 193 -22 136 87 136 228 c 2
 136 605 l 2
 136 641 134 652 57 652 c 2
 33 652 l 1xdc
EndSplineSet
EndChar

StartChar: uni01B3
Encoding: 435 435 51
Width: 749
Flags: HW
HStem: 0 21G<228 228 520 520> 3 28<228 324.451 423.933 520> 578 111<671 730.5> 652 37<11 106.835 221.298 289> 660 20G<120 160.5> 667 22<678 691>
VStem: 331 86<78 80 80 273> 678 87<609 637>
LayerCount: 2
Fore
SplineSet
11 652 m 1x53
 11 683 l 1
 53 681 99 680 141 680 c 0x4b
 180 680 253 680 289 683 c 1
 289 652 l 1x53
 244 652 219 648 219 627 c 0
 219 622 219 620 226 610 c 2
 407 315 l 1
 622 665 l 2
 635 685 659 689 683 689 c 0
 733 689 765 662 765 623 c 0
 765 590 739 578 722 578 c 0x63
 700 578 678 596 678 622 c 0
 678 652 706 663 708 663 c 1
 707 664 698 667 684 667 c 0
 672 667 656 661 645 644 c 2
 417 273 l 1
 417 80 l 2
 417 41 420 31 497 31 c 2
 520 31 l 1x47
 520 0 l 1xa3
 484 3 413 3 374 3 c 0x63
 335 3 264 3 228 0 c 1xa3
 228 31 l 1
 252 31 l 2
 329 31 331 42 331 78 c 2
 331 273 l 1
 121 615 l 2
 105 641 97 652 29 652 c 2
 11 652 l 1x53
EndSplineSet
EndChar

StartChar: uni01B4
Encoding: 436 436 52
Width: 640
Flags: HW
HStem: -205 22<108.5 142.5> -205 124<51 142.5> 400 28<19 87.3356 172.54 225> 578 111<571.5 631.5> 667 22<578.5 592>
VStem: 19 84<-131 -110 -131 -109> 19 150<372 431 372 431> 579 87<609 637>
LayerCount: 2
Fore
SplineSet
19 -124 m 0
 19 -94 41 -81 61 -81 c 0
 84 -81 103 -97 103 -123 c 0x75
 103 -139 95 -161 64 -165 c 1
 83 -183 106 -183 111 -183 c 0
 175 -183 203 -114 225 -59 c 2
 250 0 l 1
 100 365 l 2
 86 400 67 400 19 400 c 1
 19 431 l 1
 49 429 89 428 116 428 c 0
 133 428 199 430 225 431 c 1
 225 400 l 1
 206 400 169 400 169 374 c 0
 169 370 171 366 175 356 c 2
 286 87 l 1
 515 643 l 2
 529 678 559 689 584 689 c 0
 634 689 666 662 666 623 c 0
 666 590 640 578 623 578 c 0xb3
 601 578 579 596 579 622 c 0
 579 652 607 663 609 663 c 1
 608 664 599 667 585 667 c 0
 572 667 546 662 535 626 c 2xad
 239 -91 l 2
 215 -148 174 -205 111 -205 c 0
 61 -205 19 -169 19 -124 c 0
EndSplineSet
EndChar

StartChar: uni01B5
Encoding: 437 437 53
Width: 611
Flags: HW
HStem: 0 34<159 323 323 415.5> 326 32<124 266 124 246 363 484> 652 31<213 295 295 452>
VStem: 74 20<458 458>
LayerCount: 2
Fore
SplineSet
56 17 m 0
 56 25 56 26 63 37 c 2
 246 326 l 1
 124 326 l 1
 124 358 l 1
 266 358 l 1
 452 652 l 1
 295 652 l 2
 131 652 101 571 94 458 c 1
 69 458 l 1
 80 683 l 1
 528 683 l 2
 548 683 554 683 554 667 c 0
 554 660 554 659 547 648 c 2
 363 358 l 1
 484 358 l 1
 484 326 l 1
 343 326 l 1
 159 34 l 1
 323 34 l 2
 508 34 527 128 535 267 c 1
 560 267 l 1
 543 0 l 1
 82 0 l 2
 61 0 56 0 56 17 c 0
EndSplineSet
EndChar

StartChar: uni01B6
Encoding: 438 438 54
Width: 443
Flags: HW
HStem: 0 25<112 230 230 288> 199 32<91 184 91 160 264 334> 409 22<147 202 202 316>
VStem: 47 20<270 270>
LayerCount: 2
Fore
SplineSet
28 14 m 0
 28 19 28 21 37 32 c 2
 160 199 l 1
 91 199 l 1
 91 231 l 1
 184 231 l 1
 316 409 l 1
 202 409 l 2
 92 409 73 372 67 270 c 1
 42 270 l 1
 53 431 l 1
 373 431 l 2
 391 431 399 431 399 418 c 0
 399 414 399 412 390 401 c 2
 264 231 l 1
 334 231 l 1
 334 199 l 1
 241 199 l 1
 112 25 l 1
 230 25 l 2
 346 25 367 69 376 187 c 1
 401 187 l 1
 384 0 l 1
 54 0 l 2
 35 0 28 0 28 14 c 0
EndSplineSet
EndChar

StartChar: uni01B8
Encoding: 440 440 55
Width: 550
Flags: HW
HStem: -22 25<261.5 333.5 261.5 340.5> 75 111<441 458 458 466 441 469> 355 33<270 290 218 294> 622 61<74 263 74 74>
VStem: 41 103<134 219 105.5 241> 400 112<115.5 146.5>
LayerCount: 2
Fore
SplineSet
41 184 m 0
 41 298 150 388 286 388 c 0
 294 388 302 388 310 387 c 1
 61 600 l 2
 48 611 43 614 43 632 c 2
 43 661 l 2
 43 675 45 683 69 683 c 2
 484 683 l 1
 512 458 l 1
 487 458 l 1
 466 610 415 622 263 622 c 2
 74 622 l 1
 356 382 l 2
 373 367 377 364 378 358 c 1
 380 352 376 345 366 345 c 0
 351 345 362 354 294 355 c 0
 246 355 208 342 178 309 c 0
 159 287 144 254 144 184 c 0
 144 27 232 3 291 3 c 0
 376 3 437 24 469 75 c 1
 458 75 l 2
 420 75 400 101 400 130 c 0
 400 163 426 186 456 186 c 0
 476 186 512 174 512 127 c 0
 512 9 392 -22 289 -22 c 0
 131 -22 41 84 41 184 c 0
EndSplineSet
EndChar

StartChar: uni01BB
Encoding: 443 443 56
Width: 499
Flags: HW
HStem: 0 77<127 307 307 318 127 421> 281 32<71 301 71 278 376 455> 635 31<195 269.5>
VStem: 50 105<461.5 495 461.5 529.5> 358 91<444.5 513>
LayerCount: 2
Fore
SplineSet
50 0 m 1
 50 24 50 26 61 37 c 2
 253 251 l 2
 261 260 270 270 278 281 c 1
 71 281 l 1
 71 313 l 1
 301 313 l 1
 334 362 358 417 358 472 c 0
 358 554 315 635 224 635 c 0
 166 635 112 598 89 533 c 1
 92 534 94 534 102 534 c 0
 137 534 155 508 155 482 c 0
 155 441 120 429 103 429 c 0
 100 429 50 429 50 485 c 0
 50 574 124 666 237 666 c 0
 359 666 449 586 449 472 c 0
 449 412 427 368 376 313 c 1
 455 313 l 1
 455 281 l 1
 344 281 l 1
 314 252 278 219 233 180 c 2
 127 77 l 1
 307 77 l 2
 329 77 395 77 402 85 c 0
 412 100 419 144 424 174 c 1
 449 174 l 1
 421 0 l 1
 50 0 l 1
EndSplineSet
EndChar

StartChar: uni01BC
Encoding: 444 444 57
Width: 519
Flags: HW
HStem: -22 28<211.5 271 211.5 308> 116 98<112.5 134.5> 398 22<254 302> 637 46<17 41 17 454 195 230 230 317>
VStem: 69 99<153 177 153 184> 120 31<369 590 590 599 369 608> 379 89<190.5 233>
LayerCount: 2
Fore
SplineSet
17 637 m 1
 17 683 l 1
 454 683 l 1
 468 513 l 1
 443 513 l 1
 434 614 428 637 317 637 c 2
 230 637 l 2
 160 637 152 628 151 599 c 2
 151 369 l 1xf6
 187 404 230 420 278 420 c 0
 386 420 468 320 468 201 c 0
 468 74 366 -22 250 -22 c 0
 138 -22 69 75 69 161 c 0
 69 207 104 214 118 214 c 0
 151 214 168 189 168 165 c 0
 168 141 151 116 118 116 c 0
 107 116 104 117 101 118 c 1
 118 59 175 6 248 6 c 0
 294 6 331 32 355 71 c 0
 379 113 379 173 379 208 c 0
 379 258 377 297 361 334 c 0
 353 352 328 398 276 398 c 0
 195 398 158 344 147 328 c 0
 143 322 141 319 134 319 c 0xfa
 120 319 120 327 120 345 c 2
 120 590 l 2
 120 626 118 637 41 637 c 2
 17 637 l 1
EndSplineSet
EndChar

StartChar: uni01BD
Encoding: 445 445 58
Width: 399
Flags: HW
HStem: -22 26<168 214 168 243> 67 76<94 109 91 111> 252 26<201 238> 394 36<27 39 27 356 155 182 182 250>
VStem: 56 79<95.5 114.5 95.5 120> 94 27<238 358 358 365 238 372> 298 69<127.5 160.5>
LayerCount: 2
Fore
SplineSet
27 394 m 1
 27 430 l 1
 356 430 l 1
 367 298 l 1
 348 298 l 1
 341 377 336 394 250 394 c 2
 182 394 l 2
 128 394 122 387 121 365 c 2
 121 238 l 1xf6
 149 266 182 278 220 278 c 0
 303 278 367 228 367 136 c 0
 367 38 288 -22 198 -22 c 0
 111 -22 56 35 56 102 c 0
 56 138 86 143 96 143 c 0
 122 143 135 124 135 105 c 0
 135 86 124 67 98 67 c 0
 90 67 89 68 86 69 c 1
 99 23 140 4 196 4 c 0
 232 4 261 20 279 50 c 0
 298 83 298 114 298 141 c 0
 298 180 294 200 286 213 c 0
 278 226 258 252 218 252 c 0
 155 252 126 210 118 198 c 0
 115 193 113 191 108 191 c 0xfa
 97 191 94 197 94 211 c 2
 94 358 l 2
 94 386 98 394 39 394 c 2
 27 394 l 1
EndSplineSet
EndChar

StartChar: uni01BE
Encoding: 446 446 59
Width: 460
Flags: HW
HStem: -11 25<206.866 339.908> 400 22<19 104 19 19> 400 31<173 316 173 316>
VStem: 104 69<325 331 331 400> 148 25<615 615> 307 25
LayerCount: 2
Fore
SplineSet
19 400 m 1
 19 422 l 1
 117 426 147 533 148 615 c 1xcc
 173 615 l 1
 173 431 l 1
 316 431 l 1
 316 400 l 1
 173 400 l 1
 173 331 l 2
 173 289 219 282 275 271 c 0
 317 263 356 255 389 223 c 0
 401 211 431 181 431 128 c 0
 431 56 385 -11 270 -11 c 0
 249 -11 204 -10 160 32 c 1
 142 13 142 11 140 9 c 0
 121 -10 120 -11 115 -11 c 0
 104 -11 104 -4 104 13 c 2xb4
 104 145 l 2
 104 163 104 170 117 170 c 0
 127 170 128 166 131 153 c 0
 150 68 186 11 270 11 c 0
 348 11 383 51 383 102 c 0
 383 174 301 190 279 194 c 0
 207 208 179 214 147 240 c 0
 120 262 104 290 104 325 c 2
 104 400 l 1xb4
 19 400 l 1
EndSplineSet
EndChar

StartChar: uni01D5
Encoding: 469 469 60
Width: 750
Flags: HW
HStem: -22 31<366.5 437.5 366.5 445.5> 652 31<33 57 33 33>
VStem: 136 89<228 605> 582 31<234 254 254 574>
LayerCount: 2
Fore
SplineSet
33 652 m 1
 33 683 l 1
 68 680 143 680 181 680 c 0
 219 680 293 680 328 683 c 1
 328 652 l 1
 304 652 l 2
 227 652 225 641 225 605 c 2
 225 224 l 2
 225 34 343 9 390 9 c 0
 485 9 582 89 582 231 c 2
 582 578 l 2
 582 605 582 652 479 652 c 1
 479 683 l 1
 515 682 563 680 598 680 c 0
 632 680 680 682 716 683 c 1
 716 652 l 1
 613 652 613 607 613 574 c 2
 613 254 l 2
 613 214 613 205 610 185 c 0
 593 71 503 -22 388 -22 c 0
 252 -22 136 87 136 228 c 2
 136 605 l 2
 136 641 134 652 57 652 c 2
 33 652 l 1
195 906 m 1
 195 938 l 1
 555 938 l 1
 555 906 l 1
 195 906 l 1
224 814 m 0
 224 841 246 866 277 866 c 0
 304 866 329 845 329 814 c 0
 329 783 303 761 277 761 c 0
 246 761 224 787 224 814 c 0
419 814 m 0
 419 841 441 866 472 866 c 0
 499 866 524 845 524 814 c 0
 524 783 498 761 472 761 c 0
 441 761 419 787 419 814 c 0
EndSplineSet
EndChar

StartChar: uni01D6
Encoding: 470 470 61
Width: 555
Flags: HW
HStem: -11 22<225 290> 0 31<500 535> 400 31<32 71> 554 105<171.5 198 367 393> 785 32
VStem: 110 69<158 308 308 352.5> 132 105<593 621.5> 327 105<590.5 621.5> 388 69<166 344 344 368.5> 391 66<62.5 79 79 79>
LayerCount: 2
Fore
SplineSet
32 400 m 1xb4
 32 431 l 1
 179 442 l 1
 179 110 l 2
 179 58 183 11 267 11 c 0
 340 11 388 79 388 166 c 2
 388 344 l 2xb8
 388 393 380 400 310 400 c 1
 310 431 l 1
 457 442 l 1xb4
 457 87 l 2
 457 38 465 31 535 31 c 1
 535 0 l 1x78
 391 -11 l 1
 391 79 l 1
 362 17 318 -11 262 -11 c 0
 110 -11 110 80 110 158 c 2
 110 308 l 2
 110 397 110 400 32 400 c 1xb4
103 721 m 1
 103 753 l 1
 463 753 l 1
 463 721 l 1
 103 721 l 1
132 606 m 0
 132 637 158 659 185 659 c 0
 212 659 237 637 237 606 c 0
 237 575 211 554 185 554 c 0
 154 554 132 580 132 606 c 0
327 606 m 0x32
 327 637 353 659 380 659 c 0
 407 659 432 637 432 606 c 0
 432 575 406 554 380 554 c 0
 354 554 327 575 327 606 c 0x32
EndSplineSet
EndChar

StartChar: uni01D7
Encoding: 471 471 62
Width: 750
Flags: HW
HStem: -22 31<366.5 437.5 366.5 445.5> 652 31<33 57 33 33>
VStem: 136 89<228 605> 582 31<234 254 254 574>
LayerCount: 2
Fore
SplineSet
33 652 m 1
 33 683 l 1
 68 680 143 680 181 680 c 0
 219 680 293 680 328 683 c 1
 328 652 l 1
 304 652 l 2
 227 652 225 641 225 605 c 2
 225 224 l 2
 225 34 343 9 390 9 c 0
 485 9 582 89 582 231 c 2
 582 578 l 2
 582 605 582 652 479 652 c 1
 479 683 l 1
 515 682 563 680 598 680 c 0
 632 680 680 682 716 683 c 1
 716 652 l 1
 613 652 613 607 613 574 c 2
 613 254 l 2
 613 214 613 205 610 185 c 0
 593 71 503 -22 388 -22 c 0
 252 -22 136 87 136 228 c 2
 136 605 l 2
 136 641 134 652 57 652 c 2
 33 652 l 1
224 814 m 0
 224 841 246 866 277 866 c 0
 304 866 329 845 329 814 c 0
 329 783 303 761 277 761 c 0
 246 761 224 787 224 814 c 0
328 891 m 1
 476 983 481 988 495 988 c 0
 517 988 530 968 530 951 c 0
 530 921 508 920 384 881 c 0
 369 877 354 872 338 868 c 1
 328 891 l 1
419 814 m 0
 419 841 441 866 472 866 c 0
 499 866 524 845 524 814 c 0
 524 783 498 761 472 761 c 0
 441 761 419 787 419 814 c 0
EndSplineSet
EndChar

StartChar: uni01D8
Encoding: 472 472 63
Width: 555
Flags: HW
HStem: -11 22<225 290> 0 31<500 535> 400 31<32 71> 554 105<171.5 198 367 393>
VStem: 110 69<158 308 308 352.5> 132 105<593 621.5> 327 105<590.5 621.5> 388 69<166 344 344 368.5> 391 66<62.5 79 79 79>
LayerCount: 2
Fore
SplineSet
32 400 m 1xb4
 32 431 l 1
 179 442 l 1
 179 110 l 2
 179 58 183 11 267 11 c 0
 340 11 388 79 388 166 c 2
 388 344 l 2xb8
 388 393 380 400 310 400 c 1
 310 431 l 1
 457 442 l 1xb4
 457 87 l 2
 457 38 465 31 535 31 c 1
 535 0 l 1x78
 391 -11 l 1
 391 79 l 1
 362 17 318 -11 262 -11 c 0
 110 -11 110 80 110 158 c 2
 110 308 l 2
 110 397 110 400 32 400 c 1xb4
132 606 m 0
 132 637 158 659 185 659 c 0
 212 659 237 637 237 606 c 0
 237 575 211 554 185 554 c 0
 154 554 132 580 132 606 c 0
191 716 m 1
 317 839 322 848 341 848 c 0
 362 848 376 828 376 811 c 0
 376 788 369 788 247 719 c 0
 234 711 220 703 206 696 c 1
 191 716 l 1
327 606 m 0x32
 327 637 353 659 380 659 c 0
 407 659 432 637 432 606 c 0
 432 575 406 554 380 554 c 0
 354 554 327 575 327 606 c 0x32
EndSplineSet
EndChar

StartChar: uni01D9
Encoding: 473 473 64
Width: 750
Flags: HW
HStem: -22 31<366.5 437.5 366.5 445.5> 652 31<33 57 33 33>
VStem: 136 89<228 605> 582 31<234 254 254 574>
LayerCount: 2
Fore
SplineSet
33 652 m 1
 33 683 l 1
 68 680 143 680 181 680 c 0
 219 680 293 680 328 683 c 1
 328 652 l 1
 304 652 l 2
 227 652 225 641 225 605 c 2
 225 224 l 2
 225 34 343 9 390 9 c 0
 485 9 582 89 582 231 c 2
 582 578 l 2
 582 605 582 652 479 652 c 1
 479 683 l 1
 515 682 563 680 598 680 c 0
 632 680 680 682 716 683 c 1
 716 652 l 1
 613 652 613 607 613 574 c 2
 613 254 l 2
 613 214 613 205 610 185 c 0
 593 71 503 -22 388 -22 c 0
 252 -22 136 87 136 228 c 2
 136 605 l 2
 136 641 134 652 57 652 c 2
 33 652 l 1
222 993 m 1xe6
 233 1009 l 1
 234 1009 l 1x28
 340 947 364 930 377 930 c 0
 387 930 461 980 516 1009 c 1
 528 993 l 1
 384 871 382 868 375 868 c 0
 363 868 281 946 222 993 c 1xe6
224 814 m 0
 224 841 246 866 277 866 c 0
 304 866 329 845 329 814 c 0
 329 783 303 761 277 761 c 0
 246 761 224 787 224 814 c 0
419 814 m 0
 419 841 441 866 472 866 c 0
 499 866 524 845 524 814 c 0
 524 783 498 761 472 761 c 0
 441 761 419 787 419 814 c 0
EndSplineSet
EndChar

StartChar: uni01DA
Encoding: 474 474 65
Width: 555
Flags: HW
HStem: -11 22<225 290> 0 31<500 535> 400 31<32 71> 554 105<171.5 198 367 393>
VStem: 110 69<158 308 308 352.5> 124 306<803 803> 132 105<593 621.5> 327 105<590.5 621.5> 388 69<166 344 344 368.5> 391 66<62.5 79 79 79>
LayerCount: 2
Fore
SplineSet
32 400 m 1
 32 431 l 1
 179 442 l 1
 179 110 l 2
 179 58 183 11 267 11 c 0
 340 11 388 79 388 166 c 2
 388 344 l 2xb880
 388 393 380 400 310 400 c 1
 310 431 l 1
 457 442 l 1
 457 87 l 2
 457 38 465 31 535 31 c 1
 535 0 l 1x7040
 391 -11 l 1
 391 79 l 1
 362 17 318 -11 262 -11 c 0
 110 -11 110 80 110 158 c 2
 110 308 l 2xb840
 110 397 110 400 32 400 c 1
124 803 m 1x34
 137 818 l 1
 271 728 270 728 277 728 c 0
 288 728 307 745 418 818 c 1
 430 803 l 1
 278 656 l 1
 277 656 l 1
 124 803 l 1x34
132 606 m 0x32
 132 637 158 659 185 659 c 0
 212 659 237 637 237 606 c 0
 237 575 211 554 185 554 c 0
 154 554 132 580 132 606 c 0x32
327 606 m 0x31
 327 637 353 659 380 659 c 0
 407 659 432 637 432 606 c 0
 432 575 406 554 380 554 c 0
 354 554 327 575 327 606 c 0x31
EndSplineSet
EndChar

StartChar: uni01DB
Encoding: 475 475 66
Width: 750
Flags: HW
HStem: -22 31<366.5 437.5 366.5 445.5> 652 31<33 33 33 57> 761 105<261.5 290 459 487>
VStem: 136 89<228 605> 224 105<800.5 827.5> 419 105<800.5 827 800.5 828.5> 582 31<234 254 254 574>
LayerCount: 2
Fore
SplineSet
33 652 m 1
 33 683 l 1
 68 680 143 680 181 680 c 0
 219 680 293 680 328 683 c 1
 328 652 l 1
 304 652 l 2
 227 652 225 641 225 605 c 2
 225 224 l 2
 225 34 343 9 390 9 c 0
 485 9 582 89 582 231 c 2
 582 578 l 2
 582 605 582 652 479 652 c 1
 479 683 l 1
 515 682 563 680 598 680 c 0
 632 680 680 682 716 683 c 1
 716 652 l 1
 613 652 613 607 613 574 c 2
 613 254 l 2
 613 214 613 205 610 185 c 0
 593 71 503 -22 388 -22 c 0
 252 -22 136 87 136 228 c 2
 136 605 l 2
 136 641 134 652 57 652 c 2
 33 652 l 1
224 814 m 0
 224 841 246 866 277 866 c 0
 304 866 329 845 329 814 c 0
 329 783 303 761 277 761 c 0
 246 761 224 787 224 814 c 0
261 968 m 4
 261 984 273 1005 295 1005 c 6
 296 1005 l 6
 309 1005 308 1004 463 908 c 5
 452 885 l 5
 452 885 290 933 279 939 c 4
 273 942 261 951 261 968 c 4
419 814 m 0
 419 841 441 866 472 866 c 0
 499 866 524 845 524 814 c 0
 524 783 498 761 472 761 c 0
 441 761 419 787 419 814 c 0
EndSplineSet
EndChar

StartChar: uni01DC
Encoding: 476 476 67
Width: 555
Flags: HW
HStem: -11 22<225 290> 0 31<500 535> 400 31<32 71> 554 105<171.5 198 367 393>
VStem: 110 69<158 308 308 352.5> 132 105<593 621.5> 327 105<590.5 621.5> 388 69<166 344 344 368.5> 391 66<62.5 79 79 79>
LayerCount: 2
Fore
SplineSet
32 400 m 1xb4
 32 431 l 1
 179 442 l 1
 179 110 l 2
 179 58 183 11 267 11 c 0
 340 11 388 79 388 166 c 2
 388 344 l 2xb8
 388 393 380 400 310 400 c 1
 310 431 l 1
 457 442 l 1xb4
 457 87 l 2
 457 38 465 31 535 31 c 1
 535 0 l 1x78
 391 -11 l 1
 391 79 l 1
 362 17 318 -11 262 -11 c 0
 110 -11 110 80 110 158 c 2
 110 308 l 2
 110 397 110 400 32 400 c 1xb4
132 606 m 0
 132 637 158 659 185 659 c 0
 212 659 237 637 237 606 c 0
 237 575 211 554 185 554 c 0
 154 554 132 580 132 606 c 0
174 800 m 0
 174 817 188 837 209 837 c 0
 229 837 233 826 359 705 c 1
 344 685 l 1
 326 694 254 735 210 760 c 0
 201 765 174 776 174 800 c 0
327 606 m 0x32
 327 637 353 659 380 659 c 0
 407 659 432 637 432 606 c 0
 432 575 406 554 380 554 c 0
 354 554 327 575 327 606 c 0x32
EndSplineSet
EndChar

StartChar: uni01DE
Encoding: 478 478 68
Width: 750
Flags: HW
HStem: 0 31<32 32> 228 31<233 458 233 469 222 458> 696 20<351 383 367 398>
VStem: 32 685<0 31 0 31>
LayerCount: 2
Fore
SplineSet
32 0 m 1
 32 31 l 1
 86 32 126 47 144 98 c 2
 351 696 l 2
 356 710 359 716 375 716 c 0
 391 716 393 709 398 696 c 2
 614 71 l 2
 625 38 639 31 699 31 c 2
 717 31 l 1
 717 0 l 1
 675 2 629 3 586 3 c 0
 548 3 478 3 442 0 c 1
 442 31 l 1
 469 31 525 31 525 61 c 0
 525 65 523 71 522 75 c 2
 469 228 l 1
 222 228 l 1
 176 97 l 2
 175 95 174 85 174 82 c 0
 174 56 199 31 249 31 c 1
 249 0 l 1
 217 1 165 3 134 3 c 0
 98 3 55 1 32 0 c 1
233 259 m 1
 458 259 l 1
 345 584 l 1
 233 259 l 1
195 906 m 1
 195 938 l 1
 555 938 l 1
 555 906 l 1
 195 906 l 1
224 814 m 0
 224 841 246 866 277 866 c 0
 304 866 329 845 329 814 c 0
 329 783 303 761 277 761 c 0
 246 761 224 787 224 814 c 0
419 814 m 0
 419 841 441 866 472 866 c 0
 499 866 524 845 524 814 c 0
 524 783 498 761 472 761 c 0
 441 761 419 787 419 814 c 0
EndSplineSet
EndChar

StartChar: uni01DF
Encoding: 479 479 69
Width: 500
Flags: HW
HStem: -11 22<184.5 231.5 184.5 235> -6 31<415.5 421.5> 426 22<204 244.5> 554 105<138.5 165 138.5 166 333.5 360> 785 32
VStem: 42 77<71 117> 71 92<321 340 321 368> 100 105<592 621.5> 294 105<593 621.5> 326 69<140 240 240 240 261 275> 468 25<89 145>
LayerCount: 2
Fore
SplineSet
42 95 m 0xb6
 42 139 67 191 142 225 c 0
 205 255 275 258 326 261 c 1
 326 298 l 2
 326 387 269 426 220 426 c 0
 188 426 139 415 112 380 c 1
 158 379 163 346 163 334 c 0
 163 308 145 288 117 288 c 0
 91 288 71 305 71 335 c 0
 71 401 140 448 222 448 c 0
 270 448 320 432 359 393 c 0
 395 356 395 317 395 275 c 2
 395 75 l 2
 395 70 399 25 432 25 c 0
 443 25 468 31 468 89 c 2
 468 145 l 1
 493 145 l 1
 493 89 l 2
 493 8 432 -6 411 -6 c 0x6e
 364 -6 337 36 333 76 c 1
 314 29 268 -11 202 -11 c 0
 139 -11 42 14 42 95 c 0xb6
71 721 m 1
 71 753 l 1
 431 753 l 1
 431 721 l 1
 71 721 l 1
100 606 m 0x3240
 100 637 125 659 152 659 c 0
 178 659 205 637 205 606 c 0
 205 575 179 554 153 554 c 0
 122 554 100 578 100 606 c 0x3240
119 96 m 0xb6
 119 46 160 11 209 11 c 0
 254 11 326 45 326 140 c 2
 326 240 l 1
 161 234 119 151 119 96 c 0xb6
294 606 m 0
 294 637 320 659 347 659 c 0
 374 659 399 637 399 606 c 0
 399 575 373 554 347 554 c 0
 316 554 294 580 294 606 c 0
EndSplineSet
EndChar

StartChar: uni01E0
Encoding: 480 480 70
Width: 750
Flags: HW
HStem: 0 31<32 32> 228 31<233 458 233 469 222 458> 696 20<351 383 367 398>
VStem: 32 685<0 31 0 31>
LayerCount: 2
Fore
SplineSet
32 0 m 1
 32 31 l 1
 86 32 126 47 144 98 c 2
 351 696 l 2
 356 710 359 716 375 716 c 0
 391 716 393 709 398 696 c 2
 614 71 l 2
 625 38 639 31 699 31 c 2
 717 31 l 1
 717 0 l 1
 675 2 629 3 586 3 c 0
 548 3 478 3 442 0 c 1
 442 31 l 1
 469 31 525 31 525 61 c 0
 525 65 523 71 522 75 c 2
 469 228 l 1
 222 228 l 1
 176 97 l 2
 175 95 174 85 174 82 c 0
 174 56 199 31 249 31 c 1
 249 0 l 1
 217 1 165 3 134 3 c 0
 98 3 55 1 32 0 c 1
233 259 m 1
 458 259 l 1
 345 584 l 1
 233 259 l 1
195 906 m 1
 195 938 l 1
 555 938 l 1
 555 906 l 1
 195 906 l 1
322 818 m 0
 322 849 348 871 375 871 c 0
 402 871 427 849 427 818 c 0
 427 787 401 766 375 766 c 0
 344 766 322 792 322 818 c 0
EndSplineSet
EndChar

StartChar: uni01E1
Encoding: 481 481 71
Width: 500
Flags: HW
HStem: -11 22<184.5 231.5 184.5 235> -6 31<415.5 421.5> 426 22<204 244.5> 497 105<204.5 231 204.5 232>
VStem: 42 77<71 117> 71 92<321 340 321 368> 169 105<510.163 589.571> 326 69<140 240 240 240 261 275> 468 25<89 145>
LayerCount: 2
Fore
SplineSet
42 95 m 0xb6
 42 139 67 191 142 225 c 0
 205 255 275 258 326 261 c 1
 326 298 l 2
 326 387 269 426 220 426 c 0
 188 426 139 415 112 380 c 1
 158 379 163 346 163 334 c 0
 163 308 145 288 117 288 c 0
 91 288 71 305 71 335 c 0
 71 401 140 448 222 448 c 0
 270 448 320 432 359 393 c 0
 395 356 395 317 395 275 c 2
 395 75 l 2
 395 70 399 25 432 25 c 0
 443 25 468 31 468 89 c 2
 468 145 l 1
 493 145 l 1
 493 89 l 2
 493 8 432 -6 411 -6 c 0x6e
 364 -6 337 36 333 76 c 1
 314 29 268 -11 202 -11 c 0
 139 -11 42 14 42 95 c 0xb6
71 664 m 1
 71 696 l 1
 431 696 l 1
 431 664 l 1
 71 664 l 1
119 96 m 0xb6
 119 46 160 11 209 11 c 0
 254 11 326 45 326 140 c 2
 326 240 l 1
 161 234 119 151 119 96 c 0xb6
166 550 m 0
 166 577 188 602 219 602 c 0
 246 602 271 581 271 550 c 0
 271 519 245 497 219 497 c 0
 188 497 166 523 166 550 c 0
EndSplineSet
EndChar

StartChar: uni01E4
Encoding: 484 484 72
Width: 784
Flags: W
HStem: -22 31<337.5 464.856> 129 32<382.992 577 666 727.11> 242 28<452 601 650.5 652 663.113 735> 674 31<338 532.7>
VStem: 56 103<75.5 608.5> 577 89<9 129 161 231>
LayerCount: 2
Fore
SplineSet
56 342 m 0
 56 547 218 705 404 705 c 0
 503 705 557 651 589 619 c 1
 639 693 l 2
 647 705 651 705 655 705 c 0
 666 705 666 698 666 681 c 2
 666 444 l 2
 666 423 666 420 650 420 c 0
 636 420 636 423 634 437 c 0
 614 584 523 674 416 674 c 0
 356 674 159 641 159 342 c 0
 159 44 357 9 422 9 c 0
 450 9 576 18 577 129 c 1
 400 129 l 2
 386 129 375 131 375 145 c 0
 375 159 387 161 407 161 c 2
 577 161 l 1
 577 194 l 2
 577 231 574 242 484 242 c 2
 452 242 l 1
 452 273 l 1
 488 270 573 270 613 270 c 0
 643 270 698 272 735 273 c 1
 735 242 l 1
 670 242 666 237 666 198 c 2
 666 161 l 1
 706 161 l 2
 721 161 735 160 735 145 c 0
 735 131 722 129 709 129 c 2
 666 129 l 1
 666 24 l 2
 666 9 666 1 657 1 c 0
 646 1 606 41 593 63 c 1
 559 4 479 -22 406 -22 c 0
 216 -22 56 137 56 342 c 0
EndSplineSet
EndChar

StartChar: uni01E5
Encoding: 485 485 73
Width: 500
Flags: W
HStem: -206 23<130.4 365.7> -94 32<81 417 470 494.11> 7 58<136.961 332.58> 149 23<179.828 274> 419 23<170 263.773> 431 22<401.524 445.815>
VStem: 60 75<247.924 347.037> 76 30<91.4 149.649> 309 75<243.963 343.076> 427 58<380.9 422.075>
LayerCount: 2
Fore
SplineSet
-2 -78 m 0xf5c0
 -2 -64 10 -62 30 -62 c 1
 37 -27 68 6 120 21 c 1
 89 41 76 79 76 110 c 0xf5c0
 76 145 94 178 107 193 c 1
 82 214 60 252 60 296 c 0
 60 373 129 442 222 442 c 0xfac0
 244 442 286 439 328 406 c 1
 370 447 414 453 434 453 c 0
 473 453 485 421 485 404 c 0
 485 381 466 374 456 374 c 0
 440 374 427 386 427 403 c 0
 427 415 432 426 443 430 c 1
 440 431 435 431 433 431 c 0
 415 431 379 426 343 392 c 1
 368 369 384 332 384 295 c 0
 384 218 315 149 222 149 c 0
 203 149 162 152 123 180 c 1
 106 160 106 137 106 133 c 0
 106 101 127 70 159 66 c 0
 166 65 209 65 234 65 c 0
 295 65 353 65 406 37 c 0
 450 12 467 -28 470 -62 c 1
 473 -62 l 2
 488 -62 502 -63 502 -78 c 0
 502 -92 489 -94 476 -94 c 2
 469 -94 l 1
 455 -162 358 -206 249 -206 c 0
 135 -206 42 -158 29 -94 c 1
 23 -94 l 2
 9 -94 -2 -92 -2 -78 c 0xf5c0
81 -62 m 1
 417 -62 l 1
 403 7 301 7 221 7 c 2
 162 7 l 2
 123 4 89 -24 81 -62 c 1
81 -94 m 1
 93 -141 158 -183 250 -183 c 0
 339 -183 405 -142 417 -94 c 1
 81 -94 l 1
135 295 m 0xfac0
 135 272 135 172 222 172 c 0
 262 172 285 200 293 212 c 0
 308 237 309 269 309 296 c 0
 309 319 309 419 222 419 c 0
 182 419 159 391 151 379 c 0
 136 354 135 322 135 295 c 0xfac0
EndSplineSet
EndChar

StartChar: uni01EA
Encoding: 490 490 74
Width: 777
Flags: HW
HStem: -22 26<341 391> 507 44 680 25<346.5 431.5>
VStem: 56 103<236.5 442> 223 73 618 103<249 441 249 481>
LayerCount: 2
Fore
SplineSet
56 339 m 0
 56 545 209 705 388 705 c 0
 570 705 721 543 721 339 c 0
 721 159 601 13 446 -16 c 1
 439 -24 l 2
 420 -42 404 -66 404 -94 c 0
 404 -140 449 -171 486 -171 c 0
 541 -171 549 -116 563 -116 c 0
 565 -116 567 -117 570 -119 c 1
 571 -121 572 -123 572 -127 c 0
 572 -151 536 -217 467 -217 c 0
 415 -217 359 -180 359 -118 c 0
 359 -97 364 -63 406 -21 c 1
 400 -22 394 -22 388 -22 c 0
 210 -22 56 134 56 339 c 0
159 353 m 0
 159 92 293 4 389 4 c 0
 481 4 618 88 618 353 c 0
 618 609 475 680 388 680 c 0
 305 680 159 612 159 353 c 0
EndSplineSet
EndChar

StartChar: uni01EC
Encoding: 492 492 75
Width: 777
Flags: HW
HStem: -22 26<341 391> 507 44 680 25<346.5 431.5> 770 32
VStem: 56 103<236.5 442> 223 73 618 103<249 441 249 481>
LayerCount: 2
Fore
SplineSet
56 339 m 0
 56 545 209 705 388 705 c 0
 570 705 721 543 721 339 c 0
 721 159 601 13 446 -16 c 1
 439 -24 l 2
 420 -42 404 -66 404 -94 c 0
 404 -140 449 -171 486 -171 c 0
 541 -171 549 -116 563 -116 c 0
 565 -116 567 -117 570 -119 c 1
 571 -121 572 -123 572 -127 c 0
 572 -151 536 -217 467 -217 c 0
 415 -217 359 -180 359 -118 c 0
 359 -97 364 -63 406 -21 c 1
 400 -22 394 -22 388 -22 c 0
 210 -22 56 134 56 339 c 0
159 353 m 0
 159 92 293 4 389 4 c 0
 481 4 618 88 618 353 c 0
 618 609 475 680 388 680 c 0
 305 680 159 612 159 353 c 0
208 759 m 1
 208 791 l 1
 568 791 l 1
 568 759 l 1
 208 759 l 1
EndSplineSet
EndChar

StartChar: uni01ED
Encoding: 493 493 76
Width: 500
Flags: HW
HStem: -217 46<321 356> -11 25<228.5 253> 426 22<229 271> 539 32<70 430 70 430>
VStem: 28 83<204 241.5 204 276.5> 213 45<-116.5 -95> 388 83<204 241>
LayerCount: 2
Fore
SplineSet
28 214 m 0
 28 339 125 448 250 448 c 0
 371 448 471 342 471 214 c 0
 471 116 411 36 329 4 c 1
 294 -24 258 -50 258 -94 c 0
 258 -139 302 -171 340 -171 c 0
 388 -171 403 -127 409 -121 c 0
 418 -110 427 -120 427 -128 c 0
 427 -149 391 -217 321 -217 c 0
 262 -217 213 -173 213 -118 c 0
 213 -72 239 -45 272 -10 c 1
 265 -11 257 -11 249 -11 c 0
 132 -11 28 85 28 214 c 0
70 539 m 1
 70 571 l 1
 430 571 l 1
 430 539 l 1
 70 539 l 1
111 222 m 0
 111 186 111 125 136 81 c 0
 163 35 207 14 250 14 c 0
 300 14 344 43 366 88 c 0
 388 132 388 186 388 222 c 0
 388 260 388 318 362 361 c 0
 336 404 293 426 249 426 c 0
 209 426 162 405 135 359 c 0
 111 315 111 261 111 222 c 0
EndSplineSet
EndChar

StartChar: uni01EE
Encoding: 494 494 77
Width: 555
Flags: HW
HStem: -22 25<219.5 291.5 219.5 343> 355 33<263 283> 622 61<214 290 290 479>
VStem: 41 25<458 458> 41 112<115.5 146.5 115.5 150.5> 122 306<902 902> 409 103<134 219>
LayerCount: 2
Fore
SplineSet
41 127 m 0xec
 41 174 77 186 97 186 c 0
 127 186 153 163 153 130 c 0xec
 153 101 133 75 95 75 c 2
 84 75 l 1
 116 24 177 3 262 3 c 0
 321 3 409 27 409 184 c 0
 409 254 394 287 375 309 c 0
 345 342 307 355 259 355 c 0
 191 354 202 345 187 345 c 0
 177 345 173 352 175 358 c 1
 176 364 180 367 197 382 c 2
 479 622 l 1
 290 622 l 2
 138 622 87 610 66 458 c 1xf4
 41 458 l 1
 69 683 l 1
 484 683 l 2
 508 683 510 675 510 661 c 2
 510 632 l 2
 510 614 505 611 492 600 c 2
 243 387 l 1
 251 388 259 388 267 388 c 0
 403 388 512 298 512 184 c 0
 512 84 422 -22 264 -22 c 0
 161 -22 41 9 41 127 c 0xec
122 902 m 1
 135 917 l 1
 269 827 268 827 275 827 c 0
 286 827 305 844 416 917 c 1
 428 902 l 1
 276 755 l 1
 275 755 l 1
 122 902 l 1
EndSplineSet
EndChar

StartChar: uni01EF
Encoding: 495 495 78
Width: 444
Flags: HW
HStem: -205 22<189.5 238.5 189.5 274> -42 20G<78 98.5> 371 59<166 217 217 349>
VStem: 41 25<264 264> 41 92<-76 -54 -76 -52.5> 72 306<645 645> 326 84<-68.5 33.5 -68.5 57.5>
LayerCount: 2
Fore
SplineSet
41 -71 m 0xec
 41 -34 69 -22 87 -22 c 0
 110 -22 133 -40 133 -68 c 0xec
 133 -84 126 -112 84 -114 c 1
 112 -158 162 -183 217 -183 c 0
 260 -183 326 -155 326 -27 c 0
 326 142 161 125 144 130 c 0
 137 132 135 136 135 140 c 0
 135 147 144 157 152 165 c 2
 349 371 l 1
 217 371 l 2
 115 371 75 362 66 264 c 1xf4
 41 264 l 1
 52 430 l 1
 377 430 l 2
 395 430 399 424 399 405 c 0
 399 371 370 362 352 337 c 2
 206 184 l 1
 318 172 410 87 410 -20 c 0
 410 -117 331 -205 217 -205 c 0
 135 -205 41 -157 41 -71 c 0xec
72 645 m 1
 85 660 l 1
 219 570 218 570 225 570 c 0
 236 570 255 587 366 660 c 1
 378 645 l 1
 226 498 l 1
 225 498 l 1
 72 645 l 1
EndSplineSet
EndChar

StartChar: uni01F6
Encoding: 502 502 79
Width: 983
Flags: W
HStem: -11 25<675.1 796> 0 31<33 134 227 328> 3 28<33 157.1 203.9 328> 340 31<225 524> 400 31<739 863.1> 652 28<33 157.1 227 328 421 545.1 615 716>
VStem: 136 89<31.2 340 371 641> 524 89<146.171 340 371 641> 842 89<140.3 389>
LayerCount: 2
Fore
SplineSet
33 0 m 1x5f80
 33 31 l 1
 57 31 l 2x5f80
 134 31 136 42 136 78 c 2
 136 605 l 2
 136 641 134 652 57 652 c 2
 33 652 l 1
 33 683 l 1
 68 680 143 680 181 680 c 0
 219 680 293 680 328 683 c 1
 328 652 l 1
 304 652 l 2
 227 652 225 641 225 605 c 2
 225 371 l 1
 524 371 l 1
 524 605 l 2
 524 641 522 652 445 652 c 2
 421 652 l 1
 421 683 l 1
 456 680 531 680 569 680 c 0
 607 680 681 680 716 683 c 1
 716 652 l 1
 692 652 l 2
 615 652 613 641 613 605 c 2
 613 197 l 2
 614 162 618 116 638 81 c 0
 665 35 688 14 731 14 c 0
 781 14 804 43 826 88 c 0
 840 116 842 149 842 178 c 2
 842 353 l 2
 842 389 840 400 763 400 c 2
 739 400 l 1
 739 431 l 1
 931 431 l 1
 931 214 l 2
 931 87 851 -11 730 -11 c 0x9f80
 613 -11 524 85 524 214 c 2
 524 340 l 1
 225 340 l 1
 225 78 l 2
 225 42 227 31 304 31 c 2
 328 31 l 1
 328 0 l 1x5f80
 293 3 218 3 180 3 c 0x3f80
 142 3 68 3 33 0 c 1x5f80
EndSplineSet
EndChar

StartChar: uni01F7
Encoding: 503 503 80
Width: 642
Flags: HW
HStem: 409 27
VStem: 104 70 380 87
LayerCount: 2
Fore
SplineSet
27 -199 m 1
 103 -178 124 -175 124 -123 c 2
 124 578 l 2
 124 639 115 656 86 656 c 0
 66 656 41 649 27 646 c 1
 27 675 l 1
 210 720 l 1
 210 648 l 1
 344 691 345 694 379 694 c 0
 479 694 582 596 582 456 c 0
 582 349 528 244 428 174 c 0
 388 146 344 105 212 70 c 1
 212 -175 l 1
 27 -228 l 1
 27 -199 l 1
212 103 m 1
 396 147 478 259 478 448 c 0
 478 563 428 660 360 660 c 0
 332 660 224 618 212 616 c 1
 212 103 l 1
EndSplineSet
EndChar

StartChar: Aringacute
Encoding: 506 506 81
Width: 750
Flags: W
HStem: -0 31<32 97 197.3 248 442 487.854 622.589 717> 228 31<232 458> 891 22<337.6 411.7>
VStem: 279 25<761.1 870.3> 445 25<761.1 874.2>
LayerCount: 2
Fore
SplineSet
32 -0 m 1
 32 31 l 1
 122 33 135 73 151 121 c 2
 329 632 l 2
 336 654 344 675 351 697 c 1
 292 719 279 771 279 804 c 0
 279 855 314 912 374 913 c 0
 433 913 470 858 470 804 c 0
 470 771 457 719 398 697 c 1
 405 675 413 654 420 633 c 2
 608 90 l 2
 627 37 628 31 713 31 c 2
 717 31 l 1
 717 -0 l 1
 653 3 614 3 589 3 c 0
 540 3 491 2 442 -0 c 1
 442 31 l 1
 444 31 l 2
 476 31 523 32 523 63 c 0
 523 67 522 72 521 77 c 0
 511 107 478 197 469 228 c 1
 221 228 l 1
 205 176 174 100 174 81 c 0
 174 62 191 33 248 31 c 1
 248 -0 l 1
 209 2 170 3 131 3 c 0
 112 3 82 3 32 -0 c 1
232 259 m 1
 458 259 l 1
 345 584 l 1
 232 259 l 1
304 805 m 0
 304 730 346 717 375 717 c 0
 403 717 445 731 445 803 c 0
 445 877 403 891 374 891 c 0
 346 891 304 877 304 805 c 0
282 932 m 1
 408 1055 413 1064 432 1064 c 0
 453 1064 467 1044 467 1027 c 0
 467 1004 460 1004 338 935 c 0
 325 927 311 919 297 912 c 1
 282 932 l 1
EndSplineSet
EndChar

StartChar: aringacute
Encoding: 507 507 82
Width: 500
Flags: HW
HStem: -11 22<184.5 231.5 184.5 235> -6 31<415.5 421.5> 426 22<204 244.5> 500 22<199 246 189.5 250.5> 638 23<197 244 193 253.5> 671 152
VStem: 42 77<71 117> 71 92<321 340 321 368> 126 25<569.5 597.5 569.5 600.5> 157 185<719 822.5> 292 25<562.5 591> 326 69<140 240 240 240 261 275> 468 25<89 145>
LayerCount: 2
Fore
SplineSet
42 95 m 0xb6
 42 139 67 191 142 225 c 0
 205 255 275 258 326 261 c 1
 326 298 l 2
 326 387 269 426 220 426 c 0
 188 426 139 415 112 380 c 1
 158 379 163 346 163 334 c 0
 163 308 145 288 117 288 c 0
 91 288 71 305 71 335 c 0
 71 401 140 448 222 448 c 0
 270 448 320 432 359 393 c 0
 395 356 395 317 395 275 c 2
 395 75 l 2
 395 70 399 25 432 25 c 0
 443 25 468 31 468 89 c 2
 468 145 l 1
 493 145 l 1
 493 89 l 2
 493 8 432 -6 411 -6 c 0x6e
 364 -6 337 36 333 76 c 1
 314 29 268 -11 202 -11 c 0
 139 -11 42 14 42 95 c 0xb6
119 96 m 0xb6
 119 46 160 11 209 11 c 0
 254 11 326 45 326 140 c 2
 326 240 l 1
 161 234 119 151 119 96 c 0xb6
126 580 m 0x39e0
 126 621 165 661 221 661 c 0
 267 661 317 631 317 580 c 0
 317 540 279 500 222 500 c 0
 176 500 126 530 126 580 c 0x39e0
151 580 m 0
 151 559 159 522 220 522 c 0
 272 522 292 545 292 580 c 0
 292 602 284 638 223 638 c 0
 171 638 151 615 151 580 c 0
157 719 m 1
 283 842 288 851 307 851 c 0
 328 851 342 831 342 814 c 0
 342 791 335 791 213 722 c 0
 200 714 186 706 172 699 c 1
 157 719 l 1
EndSplineSet
EndChar

StartChar: uni021C
Encoding: 540 540 83
Width: 579
Flags: HW
HStem: 625 65<128.3 376.4>
VStem: 400 88<474.1 644.4> 425 97<119.9 316.2>
LayerCount: 2
Fore
SplineSet
31 -44 m 0xa0
 31 -34 41 -28 48 -27 c 0
 58 -26 106 -25 252 9 c 0
 365 35 425 141 425 222 c 0xa0
 425 306 366 359 313 359 c 0
 277.106 359 176.277 320 161 320 c 0
 154 320 152 323 152 329 c 0
 152 354 261 366 333 416 c 0
 375 445 400 466 400 516 c 0
 400 621 353 625 275 625 c 2
 254 625 l 2
 127 625 108 606 87 606 c 0
 78 606 65 612 65 643 c 2
 65 676 l 2
 65 687 66 698 77 698 c 0
 83 698 86 692 98 680 c 1
 131 684 158 690 257 690 c 0
 421 690 488 615 488 517 c 0xc0
 488 484 474 421 384 392 c 1
 485 377 522 294 522 220 c 0
 522 143 443 28 255 -22 c 0
 154 -49 68 -61 48 -61 c 0
 40 -61 31 -55 31 -44 c 0xa0
EndSplineSet
EndChar

StartChar: uni021D
Encoding: 541 541 84
Width: 480
Flags: HW
HStem: 394 58<95 316>
VStem: 342 78<260.3 411.1> 364 86<-54.4 119.8>
LayerCount: 2
Fore
SplineSet
14 -200 m 0xa0
 14 -191 23 -186 29 -185 c 0
 38 -184 81 -183 210 -153 c 0
 311 -130 364 -36 364 36 c 0xa0
 364 111 312 158 265 158 c 0
 228 158 150 124 130 124 c 0
 124 124 121 126 121 131 c 0
 121 153 195 155 282 209 c 0
 321 233 342 253 342 297 c 0
 342 390 301 394 233 394 c 2
 212 394 l 2
 105.863 394 76.8711 377 64 377 c 0
 55 377 44 382 44 410 c 2
 44 439 l 2
 44 449 45 459 55 459 c 0
 60 459 63 454 74 443 c 1
 103 447 127 452 215 452 c 0
 360 452 420 385 420 298 c 0xc0
 420 269 407 213 328 187 c 1
 417 174 450 100 450 34 c 0
 450 -34 380 -136 213 -180 c 0
 108 -208 33 -215 29 -215 c 0
 22 -215 14 -210 14 -200 c 0xa0
EndSplineSet
EndChar

StartChar: uni0220
Encoding: 544 544 85
Width: 852
Flags: HW
HStem: -200 21G<543 543 838 838> -197 28<543 637.281 743.824 838> 3 28<33 127.281 233.824 328> 652 29<33 127.75> 679 31<398 469.5>
VStem: 33 192<0 549 31 549 652 683 74 683> 136 89<74 549 74 610 74 610> 646 89<-126 441 441 444 -126 466.5>
LayerCount: 2
Fore
SplineSet
33 0 m 1
 33 31 l 1x6d
 49 31 l 2
 122 31 135 38 136 73 c 2
 136 610 l 2x73
 135 646 121 652 48 652 c 2
 33 652 l 1
 33 683 l 1
 128 681 l 1
 195 681 l 1x75
 225 683 l 1
 225 613 l 1
 275 665 346 710 450 710 c 0
 587 710 735 621 735 444 c 2
 735 -126 l 2
 736 -162 749 -169 824 -169 c 2
 838 -169 l 1x6d
 838 -200 l 1xb5
 787 -198 735 -197 684 -197 c 0x75
 627 -197 585 -199 543 -200 c 1xb5
 543 -169 l 1
 559 -169 l 2
 632 -169 645 -162 646 -127 c 2x75
 646 441 l 2
 646 492 639 520 623 553 c 0
 591 618 518 679 421 679 c 0
 303 679 235 590 227 567 c 0
 225 561 225 555 225 549 c 2
 225 74 l 2
 226 38 239 31 314 31 c 2
 328 31 l 1
 328 0 l 1
 277 2 225 3 174 3 c 0
 117 3 75 1 33 0 c 1
EndSplineSet
EndChar

StartChar: uni0222
Encoding: 546 546 86
Width: 552
Flags: HW
HStem: -22 28<211.493 353.188> 641 25
VStem: 42 50 69 44 386 44
LayerCount: 2
Fore
SplineSet
42 160 m 0xe8
 42 265 140 325 207 356 c 1
 178 374 136 400 123 413 c 0
 75 463 73 510 73 530 c 0
 73 609 131 675 213 698 c 1
 213 670 l 1
 160 655 153 618 153 572 c 0
 153 554 166 494 218 462 c 2
 322 400 l 1
 390 437 402 488 402 550 c 0
 402 604 398 647 346 668 c 1
 346 699 l 1
 422 679 485 626 485 550 c 0
 485 479 429 423 347 384 c 1
 420 342 438 331 460 309 c 0
 503 264 516 217 516 178 c 0
 516 64 407 -20 278 -20 c 0
 158 -20 42 47 42 160 c 0xe8
130 160 m 0xd8
 130 71 181 6 280 6 c 0
 374 6 429 61 429 139 c 0
 429 205 405 237 374 257 c 2
 233 340 l 1
 136 290 130 222 130 160 c 0xd8
EndSplineSet
EndChar

StartChar: uni0223
Encoding: 547 547 87
Width: 500
Flags: HW
HStem: -22 28<207 291 207 305.5> 641 25
VStem: 42 50<109.5 180 109.5 200.5> 69 44<529.5 536> 386 44<488.5 542.5> 407 50<114.5 162.5>
LayerCount: 2
Fore
SplineSet
42 151 m 0xe4
 42 250 128 306 186 335 c 1
 161 352 124 377 113 389 c 0
 71 436 69 481 69 499 c 0
 69 573 120 635 192 657 c 1
 192 631 l 1
 146 616 113 582 113 538 c 0
 113 521 117 487 163 457 c 2
 287 377 l 1
 347 412 386 460 386 517 c 0xd8
 386 568 353 609 308 629 c 1
 308 658 l 1
 375 639 430 589 430 517 c 0xe8
 430 451 381 399 309 362 c 1
 373 322 389 312 408 291 c 0
 446 249 457 204 457 168 c 0
 457 61 362 -22 249 -22 c 0
 144 -22 42 45 42 151 c 0xe4
92 151 m 0xe4
 92 68 164 6 250 6 c 0
 332 6 407 58 407 132 c 0
 407 193 360 223 332 242 c 2
 209 320 l 1
 124 273 92 209 92 151 c 0xe4
EndSplineSet
EndChar

StartChar: uni0224
Encoding: 548 548 88
Width: 611
Flags: HW
HStem: -167 25<471.5 507 469 516.5> 0 34<159 427 159 427> 652 31<213 295 295 452>
VStem: 74 20<458 458> 561 30<-95 -54.5>
LayerCount: 2
Fore
SplineSet
56 17 m 0
 56 25 56 26 63 37 c 2
 452 652 l 1
 295 652 l 2
 131 652 101 571 94 458 c 1
 69 458 l 1
 80 683 l 1
 528 683 l 2
 548 683 554 683 554 667 c 0
 554 660 554 659 547 648 c 2
 159 34 l 1
 427 34 l 2
 526 33 591 -14 591 -77 c 0
 591 -122 550 -167 483 -167 c 0
 460 -167 394 -157 391 -139 c 0
 388 -129 398 -125 409 -128 c 0
 431 -136 455 -142 483 -142 c 0
 531 -142 561 -112 561 -78 c 0
 561 -31 510 0 427 0 c 2
 82 0 l 2
 61 0 56 0 56 17 c 0
EndSplineSet
EndChar

StartChar: uni0228
Encoding: 552 552 89
Width: 680
Flags: HW
HStem: 0 31<33 57 33 57 57 95.5 274 302 372 372 372 407 407 493> 338 31<225 315 225 315> 649 31<33 57 33 596 250.5 274 274 403>
VStem: 136 89<78 338 369 602 602 609> 423 25<221 263.5 443 486> 599 25<455 455>
LayerCount: 2
Fore
SplineSet
33 0 m 1
 33 31 l 1
 57 31 l 2
 134 31 136 42 136 78 c 2
 136 602 l 2
 136 638 134 649 57 649 c 2
 33 649 l 1
 33 680 l 1
 596 680 l 1
 624 455 l 1
 599 455 l 1
 583 594 556 649 403 649 c 2
 274 649 l 2
 227 649 225 642 225 609 c 2
 225 369 l 1
 315 369 l 2
 412 369 423 400 423 486 c 1
 448 486 l 1
 448 221 l 1
 423 221 l 1
 423 306 412 338 315 338 c 2
 225 338 l 1
 225 71 l 2
 225 38 227 31 274 31 c 2
 407 31 l 2
 579 31 602 104 627 258 c 1
 652 258 l 1
 610 0 l 1
 372 0 l 1
 372 -54 l 1
 383 -56 455 -68 455 -126 c 0
 455 -188 378 -204 232 -204 c 2
 218 -204 l 1
 218 -181 l 1
 230 -181 l 2
 325 -181 384 -170 384 -127 c 0
 384 -104 368 -74 302 -71 c 1
 302 0 l 1
 33 0 l 1
EndSplineSet
EndChar

StartChar: uni0229
Encoding: 553 553 90
Width: 444
Flags: HW
HStem: -11 25 231 21<112 349 112 390 111 349> 426 22<219 287.5>
VStem: 28 83<213 231 213 282.5> 349 66<252 271.5>
LayerCount: 2
Fore
SplineSet
28 220 m 0
 28 345 120 448 236 448 c 0
 361 448 415 351 415 252 c 0
 415 231 412 231 390 231 c 2
 111 231 l 1
 111 195 111 129 141 81 c 0
 164 44 204 14 254 14 c 0
 264 14 354 14 389 117 c 0
 391 125 393 131 402 131 c 0
 407 131 415 129 415 119 c 0
 415 101 377 7 278 -8 c 1
 278 -54 l 1
 289 -56 361 -68 361 -126 c 0
 361 -188 284 -204 138 -204 c 2
 124 -204 l 1
 124 -181 l 1
 136 -181 l 2
 231 -181 290 -170 290 -127 c 0
 290 -104 274 -74 208 -71 c 1
 208 -7 l 1
 110 12 28 102 28 220 c 0
112 252 m 1
 349 252 l 1
 349 291 339 426 236 426 c 0
 202 426 118 401 112 252 c 1
EndSplineSet
EndChar

StartChar: uni022A
Encoding: 554 554 91
Width: 777
Flags: HW
HStem: -22 26<341 435 341 479> 680 25<346.5 431.5> 761 105<277.5 304.5 277.5 304.5 471.5 498> 1037 32
VStem: 56 103<236.5 442> 239 105<799 828.5> 433 105<799 828.5> 618 103<238 441 238 481>
LayerCount: 2
Fore
SplineSet
56 339 m 0
 56 545 209 705 388 705 c 0
 570 705 721 543 721 339 c 0
 721 137 570 -22 388 -22 c 0
 210 -22 56 134 56 339 c 0
159 353 m 0
 159 92 293 4 389 4 c 0
 481 4 618 88 618 353 c 0
 618 609 475 680 388 680 c 0
 305 680 159 612 159 353 c 0
209 906 m 1
 209 938 l 1
 569 938 l 1
 569 906 l 1
 209 906 l 1
239 813 m 0
 239 844 264 866 291 866 c 0
 318 866 344 844 344 813 c 0
 344 783 317 761 292 761 c 0
 260 761 239 785 239 813 c 0
433 813 m 0
 433 844 458 866 485 866 c 0
 511 866 538 844 538 813 c 0
 538 783 512 761 486 761 c 0
 454 761 433 785 433 813 c 0
EndSplineSet
EndChar

StartChar: uni022B
Encoding: 555 555 92
Width: 500
Flags: W
HStem: -11 25<194.1 315> 426 22<197 306.2> 554 105<116.9 185.8 311.9 380.8> 721 32<70 430>
VStem: 28 83<143.442 279.877> 99 105<572.2 646.3> 294 105<572.2 646.3> 388 83<144.512 280.312>
LayerCount: 2
Fore
SplineSet
28 214 m 0xf9
 28 339 125 448 250 448 c 0
 371 448 471 342 471 214 c 0
 471 87 370 -11 249 -11 c 0
 132 -11 28 85 28 214 c 0xf9
111 222 m 0
 111 186 111 125 136 81 c 0
 163 35 207 14 250 14 c 0
 300 14 344 43 366 88 c 0
 388 132 388 186 388 222 c 0
 388 260 388 318 362 361 c 0
 336 404 293 426 249 426 c 0
 209 426 162 405 135 359 c 0
 111 315 111 261 111 222 c 0
70 721 m 1
 70 753 l 1
 430 753 l 1
 430 721 l 1
 70 721 l 1
99 606 m 0xf4
 99 637 125 659 152 659 c 0
 179 659 204 637 204 606 c 0
 204 575 178 554 152 554 c 0
 121 554 99 580 99 606 c 0xf4
294 606 m 0xf2
 294 637 320 659 347 659 c 0
 374 659 399 637 399 606 c 0
 399 575 373 554 347 554 c 0
 316 554 294 580 294 606 c 0xf2
EndSplineSet
EndChar

StartChar: uni022C
Encoding: 556 556 93
Width: 777
Flags: HW
HStem: -22 26<341 435 341 479> 680 25<346.5 431.5> 807 47 845 46<276 335> 937 32
VStem: 56 103<236.5 442> 194 389<777 830> 618 103<238 441 238 481>
LayerCount: 2
Fore
SplineSet
56 339 m 0
 56 545 209 705 388 705 c 0
 570 705 721 543 721 339 c 0
 721 137 570 -22 388 -22 c 0
 210 -22 56 134 56 339 c 0
159 353 m 0
 159 92 293 4 389 4 c 0
 481 4 618 88 618 353 c 0
 618 609 475 680 388 680 c 0
 305 680 159 612 159 353 c 0
194 777 m 1xa0
 225 811 248 845 304 845 c 0x60
 366 845 421 808 483 808 c 0
 520 808 540 821 566 846 c 1
 583 830 l 1
 552 795 528 761 473 761 c 0xa0
 411 761 355 799 294 799 c 0x60
 257 799 237 786 211 761 c 1
 194 777 l 1xa0
208 891 m 1
 208 923 l 1
 568 923 l 1
 568 891 l 1
 208 891 l 1
EndSplineSet
EndChar

StartChar: uni022D
Encoding: 557 557 94
Width: 500
Flags: W
HStem: -11 25<194.1 315> 426 22<197 306.2> 537 46<256.9 359.6> 584 46<134.1 240.1> 680 32<70 430>
VStem: 28 83<143.442 279.877> 388 83<144.512 280.312>
LayerCount: 2
Fore
SplineSet
28 214 m 0
 28 339 125 448 250 448 c 0
 371 448 471 342 471 214 c 0
 471 87 370 -11 249 -11 c 0
 132 -11 28 85 28 214 c 0
111 222 m 0
 111 186 111 125 136 81 c 0
 163 35 207 14 250 14 c 0
 300 14 344 43 366 88 c 0
 388 132 388 186 388 222 c 0
 388 260 388 318 362 361 c 0
 336 404 293 426 249 426 c 0
 209 426 162 405 135 359 c 0
 111 315 111 261 111 222 c 0
70 680 m 1
 70 712 l 1
 430 712 l 1
 430 680 l 1
 70 680 l 1
82 551 m 1
 116 591 147 630 190 630 c 0
 237 630 271 583 318 583 c 0
 350 583 373 605 398 631 c 1
 415 616 l 1
 381 577 350 537 307 537 c 0
 261 537 226 584 179 584 c 0
 140 584 108 546 99 537 c 1
 82 551 l 1
EndSplineSet
EndChar

StartChar: uni0230
Encoding: 560 560 95
Width: 777
Flags: HW
HStem: -22 26<341 435 341 479> 680 25<346.5 431.5> 756 105<374.5 401> 1037 32
VStem: 56 103<236.5 442> 335 105<795 823.5> 618 103<238 441 238 481>
LayerCount: 2
Fore
SplineSet
56 339 m 0
 56 545 209 705 388 705 c 0
 570 705 721 543 721 339 c 0
 721 137 570 -22 388 -22 c 0
 210 -22 56 134 56 339 c 0
159 353 m 0
 159 92 293 4 389 4 c 0
 481 4 618 88 618 353 c 0
 618 609 475 680 388 680 c 0
 305 680 159 612 159 353 c 0
208 896 m 1
 208 928 l 1
 568 928 l 1
 568 896 l 1
 208 896 l 1
335 808 m 0
 335 839 361 861 388 861 c 0
 415 861 440 839 440 808 c 0
 440 777 414 756 388 756 c 0
 357 756 335 782 335 808 c 0
EndSplineSet
EndChar

StartChar: uni0231
Encoding: 561 561 96
Width: 500
Flags: W
HStem: -11 25<194.1 315> 426 22<197 306.2> 497 105<213.9 282.8> 664 32<71 431>
VStem: 28 83<143.442 279.877> 196 105<515.2 589.3> 388 83<144.512 280.312>
LayerCount: 2
Fore
SplineSet
28 214 m 0
 28 339 125 448 250 448 c 0
 371 448 471 342 471 214 c 0
 471 87 370 -11 249 -11 c 0
 132 -11 28 85 28 214 c 0
111 222 m 0
 111 186 111 125 136 81 c 0
 163 35 207 14 250 14 c 0
 300 14 344 43 366 88 c 0
 388 132 388 186 388 222 c 0
 388 260 388 318 362 361 c 0
 336 404 293 426 249 426 c 0
 209 426 162 405 135 359 c 0
 111 315 111 261 111 222 c 0
71 664 m 1
 71 696 l 1
 431 696 l 1
 431 664 l 1
 71 664 l 1
196 549 m 0
 196 580 222 602 249 602 c 0
 276 602 301 580 301 549 c 0
 301 518 275 497 249 497 c 0
 218 497 196 523 196 549 c 0
EndSplineSet
EndChar

StartChar: uni0234
Encoding: 564 564 97
Width: 383
Flags: HW
HStem: 0 31 652 31<33 68>
VStem: 111 66<147 596 596 620.5>
LayerCount: 2
Fore
SplineSet
-3 -142 m 0
 -3 -128 27 -21 79 53 c 0
 108 94 112 89 112 107 c 0
 112 111 112 118 111 127 c 2
 111 596 l 2
 111 645 103 652 33 652 c 1
 33 683 l 1
 177 694 l 1
 177 147 l 1
 181 149 l 2
 195 156 227 173 257 173 c 0
 302 173 347 138 347 84 c 0
 347 37 311 -11 251 -11 c 0
 214 -11 150 -1 121 65 c 1
 54 -11 33 -107 22 -141 c 0
 20 -148 16 -154 7 -154 c 0
 3 -154 -3 -153 -3 -142 c 0
182 105 m 0
 182 79 197 15 258 15 c 0
 299 15 322 52 322 84 c 0
 322 121 291 148 257 148 c 0
 233 148 189 127 184 116 c 1
 182 114 182 110 182 105 c 0
EndSplineSet
EndChar

StartChar: uni023A
Encoding: 570 570 98
Width: 750
Flags: HW
HStem: 0 31<32 32 242 249> 228 31<233 275 222 291 326 458 233 310> 696 20G<351 383 367 398>
LayerCount: 2
Fore
SplineSet
32 0 m 1
 32 31 l 1
 86 32 126 47 144 98 c 2
 351 696 l 2
 356 710 359 716 375 716 c 0
 391 716 393 709 398 696 c 2
 443 564 l 1
 519 715 l 1
 520 716 520 717 520 718 c 1
 523 727 528 741 540 741 c 0
 546 741 555 735 555 724 c 0
 555 719 554 716 553 713 c 2
 553 711 552 711 552 710 c 1
 458 522 l 1
 614 71 l 2
 625 38 639 31 699 31 c 2
 717 31 l 1
 717 0 l 1
 675 2 629 3 586 3 c 0
 548 3 478 3 442 0 c 1
 442 31 l 1
 469 31 525 31 525 61 c 0
 525 65 523 71 522 75 c 2
 469 228 l 1
 310 228 l 1
 214 36 l 1
 224 33 235 31 249 31 c 1
 249 0 l 1
 234 0 216 1 197 2 c 1
 177 -39 l 2
 169 -59 164 -68 153 -68 c 0
 145 -68 140 -61 140 -52 c 0
 140 -48 140 -45 144 -34 c 2
 162 3 l 1
 134 3 l 2
 98 3 55 1 32 0 c 1
174 82 m 0
 174 71 178 60 187 51 c 1
 275 228 l 1
 222 228 l 1
 176 97 l 2
 175 95 174 85 174 82 c 0
233 259 m 1
 291 259 l 1
 389 456 l 1
 345 584 l 1
 233 259 l 1
326 259 m 1
 458 259 l 1
 404 414 l 1
 326 259 l 1
EndSplineSet
EndChar

StartChar: uni023B
Encoding: 571 571 99
Width: 722
Flags: HW
HStem: -22 31<404.5 470.5 404.5 485.5> 674 31<384.5 428 310.5 431.5>
VStem: 56 103<265 444>
LayerCount: 2
Fore
SplineSet
56 342 m 0
 56 546 217 705 404 705 c 0
 452 705 488 692 518 675 c 1
 533 715 l 1
 534 716 534 717 534 718 c 1
 537 727 542 741 554 741 c 0
 560 741 569 735 569 724 c 0
 569 719 568 716 567 713 c 2
 567 711 566 711 566 710 c 1
 546 657 l 1
 562 644 576 631 588 619 c 1
 638 693 l 2
 646 705 650 705 654 705 c 0
 665 705 665 698 665 681 c 2
 665 444 l 2
 665 423 665 420 649 420 c 0
 635 420 635 423 633 437 c 0
 621 523 585 589 536 630 c 1
 311 34 l 1
 353 14 393 9 416 9 c 0
 525 9 632 91 640 234 c 0
 641 244 641 250 652 250 c 0
 665 250 665 243 665 233 c 0
 665 117 567 -22 404 -22 c 0
 367 -22 331 -15 297 -4 c 1
 284 -39 l 2
 276 -59 271 -68 260 -68 c 0
 252 -68 247 -61 247 -52 c 0
 247 -48 247 -45 251 -34 c 2
 267 8 l 1
 145 63 56 188 56 342 c 0
159 341 m 0
 159 176 219 92 283 50 c 1
 508 649 l 1
 480 665 448 674 415 674 c 0
 354 674 159 640 159 341 c 0
EndSplineSet
EndChar

StartChar: uni023C
Encoding: 572 572 100
Width: 444
Flags: HW
HStem: -11 25<246.5 276.5 246.5 316> 423 25<225.5 254>
VStem: 34 83<183.5 278> 312 92<327 346.5>
LayerCount: 2
Fore
SplineSet
34 216 m 0
 34 340 126 448 251 448 c 0
 266 448 281 447 295 444 c 1
 336 554 l 1
 337 555 337 556 337 557 c 1
 340 566 345 580 357 580 c 0
 363 580 372 574 372 563 c 0
 372 558 371 555 370 552 c 2
 370 550 369 550 369 549 c 1
 326 435 l 1
 371 418 404 386 404 341 c 0
 404 311 384 294 358 294 c 0
 330 294 312 314 312 340 c 0
 312 353 318 383 359 386 c 1
 347 398 332 406 317 411 c 1
 180 44 l 1
 206 22 235 14 258 14 c 0
 295 14 360 26 389 119 c 0
 391 125 393 129 402 129 c 0
 405 129 415 129 415 119 c 0
 415 109 383 -11 249 -11 c 0
 220 -11 191 -5 166 6 c 1
 126 -101 l 2
 118 -121 113 -130 102 -130 c 0
 94 -130 89 -123 89 -114 c 0
 89 -110 89 -107 93 -96 c 2
 137 22 l 1
 76 62 34 133 34 216 c 0
117 218 m 0
 117 149 132 102 155 71 c 1
 286 420 l 1
 269 423 256 423 252 423 c 0
 199 423 117 381 117 218 c 0
EndSplineSet
EndChar

StartChar: uni023D
Encoding: 573 573 101
Width: 625
Flags: W
HStem: 0 31<33 134 212.9 532> 334 32<40.9917 136 225 345.11> 652 28<33 157.1 225 353>
VStem: 136 89<31.2 334 366 638> 557 25<124.631 258>
LayerCount: 2
Fore
SplineSet
33 0 m 1
 33 31 l 1
 57 31 l 2
 134 31 136 42 136 78 c 2
 136 334 l 1
 58 334 l 2
 44 334 33 336 33 350 c 0
 33 364 45 366 65 366 c 2
 136 366 l 1
 136 605 l 2
 136 641 134 652 57 652 c 2
 33 652 l 1
 33 683 l 1
 68 680 146 680 185 680 c 0
 226 680 317 680 353 683 c 1
 353 652 l 1
 320 652 l 2
 225 652 225 638 225 604 c 2
 225 366 l 1
 324 366 l 2
 339 366 353 365 353 350 c 0
 353 336 340 334 327 334 c 2
 225 334 l 1
 225 71 l 2
 225 38 227 31 274 31 c 2
 356 31 l 2
 532 31 546 156 557 258 c 1
 582 258 l 1
 554 0 l 1
 33 0 l 1
EndSplineSet
EndChar

StartChar: uni023E
Encoding: 574 574 102
Width: 722
Flags: HW
HStem: 0 31<181 211> 3 28<198 306.231 414.769 550> 646 31<165.5 250 470.5 486.5>
VStem: 36 25<452 452> 316 89<79 235 235 235 298 390 452 606> 660 25<452 452>
LayerCount: 2
Fore
SplineSet
36 452 m 1
 55 677 l 1
 534 677 l 1
 556 715 l 2
 557 716 557 717 557 718 c 1
 560 727 565 741 577 741 c 0
 583 741 592 735 592 724 c 0
 592 719 591 716 590 713 c 2
 590 711 589 711 589 710 c 1
 570 677 l 1
 666 677 l 1
 685 452 l 1
 660 452 l 1
 648 583 636 629 550 642 c 1
 405 390 l 1
 405 79 l 2
 405 45 405 31 510 31 c 2
 550 31 l 1
 550 0 l 1xbc
 509 3 406 3 360 3 c 0x7c
 317 3 226 3 181 0 c 1
 158 -39 l 1
 150 -59 145 -68 134 -68 c 0
 126 -68 121 -61 121 -52 c 0xbc
 121 -48 121 -45 125 -34 c 1
 316 298 l 1
 316 606 l 2
 316 629 316 640 295 644 c 0
 285 646 259 646 241 646 c 0
 90 646 75 613 61 452 c 1
 36 452 l 1
198 31 m 1
 211 31 l 2
 316 31 316 45 316 79 c 2
 316 235 l 1
 198 31 l 1
405 452 m 1
 516 645 l 1
 505 646 493 646 480 646 c 0
 461 646 434 646 423 644 c 0
 405 640 405 626 405 606 c 2
 405 452 l 1
EndSplineSet
EndChar

StartChar: uni023F
Encoding: 575 575 103
Width: 394
Flags: W
HStem: -205 23<138.7 287.497> -11 22<155.701 300.4> 429 19<81.2 238.819>
VStem: 33 48<279.5 397.8> 267 91<-162.7 -92.2> 312 48<35.7 195.6>
LayerCount: 2
Fore
SplineSet
33 13 m 2xf8
 33 145 l 2
 33 163 33 170 46 170 c 0
 56 170 57 166 60 153 c 0
 79 68 115 11 199 11 c 0
 277 11 312 51 312 102 c 0
 312 174 230 190 208 194 c 0
 136 208 108 214 76 240 c 0
 49 262 33 290 33 325 c 0
 33 381 71 448 193 448 c 0
 208 448 249 448 287 420 c 1
 291 423 301 432 304 436 c 1
 317 448 319 448 324 448 c 0
 335 448 335 441 335 424 c 2
 335 323 l 2
 335 304 335 299 322 299 c 0
 320 299 311 299 310 308 c 0
 308 339 303 429 193 429 c 0
 107 429 81 388 81 353 c 0
 81 295 148 282 204 271 c 0
 246 263 285 255 318 223 c 0
 330 211 360 181 360 128 c 0xf4
 360 56 314 -11 199 -11 c 0
 182 -11 151 -10 117 10 c 1
 122 -21 l 2
 124 -34 166 -182 257 -182 c 0
 271 -182 286 -179 304 -171 c 1
 288 -165 267 -154 267 -125 c 0
 267 -97 289 -79 313 -79 c 0
 340 -79 358 -100 358 -126 c 0
 358 -179 301 -205 258 -205 c 0
 141 -205 89 -42 89 32 c 1
 71 13 71 11 69 9 c 0
 50 -10 49 -11 44 -11 c 0
 33 -11 33 -4 33 13 c 2xf8
EndSplineSet
EndChar

StartChar: uni0240
Encoding: 576 576 104
Width: 444
Flags: W
HStem: -205 23<214.8 328.497> 409 22<92 316>
VStem: 42 25<271.468 404.297> 308 91<-162.7 -92.2>
LayerCount: 2
Fore
SplineSet
28 14 m 0
 28 19 28 21 37 32 c 2
 316 409 l 1
 202 409 l 2
 92 409 73 372 67 270 c 1
 42 270 l 1
 53 431 l 1
 373 431 l 2
 391 431 399 431 399 418 c 0
 399 414 399 412 390 401 c 2
 112 25 l 1
 148 3 173 -17 191 -47 c 0
 218 -91 234 -182 298 -182 c 0
 312 -182 327 -179 345 -171 c 1
 329 -165 308 -154 308 -125 c 0
 308 -97 330 -79 354 -79 c 0
 381 -79 399 -100 399 -126 c 0
 399 -179 342 -205 299 -205 c 0
 217 -205 205 -126 167 -63 c 0
 144 -25 77 -6 54 0 c 1
 35 0 28 0 28 14 c 0
EndSplineSet
EndChar

StartChar: uni0241
Encoding: 577 577 105
Width: 444
Flags: W
HStem: 0 31<28 133 228 333> 3 28<28 156.7 204.3 333> 680 25<144.131 254.9>
VStem: 34 92<563.2 618.753> 136 89<31.2 344> 321 83<380 677.7>
LayerCount: 2
Fore
SplineSet
28 0 m 1xbc
 28 31 l 1
 54 31 l 2
 133 31 136 42 136 78 c 2
 136 372 l 1
 151 367 168 366 180 366 c 0
 233 366 321 376 321 525 c 0
 321 676 239 680 186 680 c 0
 177 680 114 679 79 643 c 1
 120 640 126 610 126 597 c 0
 126 571 108 551 80 551 c 0
 54 551 34 568 34 598 c 0
 34 666 110 705 187 705 c 0
 312 705 404 642 404 523 c 0
 404 413 325 362 225 344 c 1
 225 78 l 2
 225 42 228 31 307 31 c 2
 333 31 l 1
 333 0 l 1xbc
 298 3 219 3 180 3 c 0x7c
 142 3 63 3 28 0 c 1xbc
EndSplineSet
EndChar

StartChar: uni0242
Encoding: 578 578 106
Width: 444
Flags: HW
HStem: 0 21G<28 28 333 333> 3 28<28 128.917 232.083 333> 3 106<174 199.5> 294 92<80 80> 423 25<181.5 212.5>
VStem: 34 92<327 346.5 327 375> 321 83<211 325.5 211 343.5>
LayerCount: 2
Fore
SplineSet
28 0 m 1x9e
 28 31 l 1
 54 31 l 2x5e
 133 31 136 42 136 78 c 2
 136 115 l 1
 151 110 168 109 180 109 c 0x3e
 233 109 321 119 321 268 c 0
 321 419 239 423 186 423 c 0
 177 423 114 422 79 386 c 1
 120 383 126 353 126 340 c 0
 126 314 108 294 80 294 c 0
 54 294 34 311 34 341 c 0
 34 409 110 448 187 448 c 0
 312 448 404 385 404 266 c 0
 404 156 325 105 225 87 c 1
 225 78 l 2
 225 42 228 31 307 31 c 2
 333 31 l 1x5e
 333 0 l 1x9e
 298 3 219 3 180 3 c 0x5e
 142 3 63 3 28 0 c 1x9e
EndSplineSet
EndChar

StartChar: uni0243
Encoding: 579 579 107
Width: 708
Flags: W
HStem: 0 31<36 137 224 529.9> 166 32<43.9917 139 222 401.11> 344 22<222 511.3> 652 31<36 160.1 224 521.1>
VStem: 139 83<31.2 166 198 344 366 641> 527 97<430.8 582.9> 551 100<91.7 271.1>
LayerCount: 2
Fore
SplineSet
36 0 m 1xfa
 36 31 l 1
 60 31 l 2
 137 31 139 42 139 78 c 2
 139 166 l 1
 61 166 l 2
 47 166 36 168 36 182 c 0
 36 196 48 198 68 198 c 2
 139 198 l 1
 139 605 l 2
 139 641 137 652 60 652 c 2
 36 652 l 1
 36 683 l 1
 402 683 l 2
 532 683 624 601 624 514 c 0xfc
 624 440 555 376 458 357 c 1
 569 345 651 270 651 183 c 0
 651 89 561 0 428 0 c 2
 36 0 l 1xfa
222 71 m 2
 222 38 224 31 271 31 c 2
 396 31 l 2
 499 31 551 113 551 184 c 0xfa
 551 251 509 344 410 344 c 2
 222 344 l 1
 222 198 l 1
 380 198 l 2
 395 198 409 197 409 182 c 0
 409 168 396 166 383 166 c 2
 222 166 l 1
 222 71 l 2
222 366 m 1
 367 366 l 2
 478 366 527 450 527 514 c 0xfc
 527 567 492 652 395 652 c 2
 271 652 l 2
 224 652 222 645 222 612 c 2
 222 366 l 1
EndSplineSet
EndChar

StartChar: uni0244
Encoding: 580 580 108
Width: 750
Flags: W
HStem: -22 31<328.9 513.5> 334 32<41.9917 136 225 582 613 707.11> 652 31<33 134 227 328 479 546.661 645.917 716>
VStem: 136 89<44.7 334 366 651.8> 582 31<185.93 334 366 605.582>
LayerCount: 2
Fore
SplineSet
33 652 m 1
 33 683 l 1
 68 680 143 680 181 680 c 0
 219 680 293 680 328 683 c 1
 328 652 l 1
 304 652 l 2
 227 652 225 641 225 605 c 2
 225 366 l 1
 582 366 l 1
 582 578 l 2
 582 605 582 652 479 652 c 1
 479 683 l 1
 515 682 563 680 598 680 c 0
 632 680 680 682 716 683 c 1
 716 652 l 1
 613 652 613 607 613 574 c 2
 613 366 l 1
 686 366 l 2
 701 366 715 365 715 350 c 0
 715 336 702 334 689 334 c 2
 613 334 l 1
 613 254 l 2
 613 214 613 205 610 185 c 0
 593 71 503 -22 388 -22 c 0
 252 -22 136 87 136 228 c 2
 136 334 l 1
 59 334 l 2
 45 334 34 336 34 350 c 0
 34 364 46 366 66 366 c 2
 136 366 l 1
 136 605 l 2
 136 641 134 652 57 652 c 2
 33 652 l 1
225 224 m 2
 225 34 343 9 390 9 c 0
 485 9 582 89 582 231 c 2
 582 334 l 1
 225 334 l 1
 225 224 l 2
EndSplineSet
EndChar

StartChar: uni0245
Encoding: 581 581 109
Width: 750
Flags: HW
HStem: 0 21G<32 32 249 249 442 442 717 717> 3 28<32 99.7056 196.43 249 442 516.866 629.018 717> 696 20G<351 383 367 398>
LayerCount: 2
Fore
SplineSet
32 0 m 1xa0
 32 31 l 1
 86 32 126 47 144 98 c 2
 351 696 l 2
 356 710 359 716 375 716 c 0
 391 716 393 709 398 696 c 2
 614 71 l 2
 625 38 639 31 699 31 c 2
 717 31 l 1x60
 717 0 l 1xa0
 675 2 629 3 586 3 c 0x60
 548 3 478 3 442 0 c 1xa0
 442 31 l 1
 469 31 525 31 525 61 c 0
 525 65 523 71 522 75 c 2
 345 584 l 1x60
 176 97 l 2
 175 95 174 85 174 82 c 0
 174 56 199 31 249 31 c 1x60
 249 0 l 1xa0
 217 1 165 3 134 3 c 0x60
 98 3 55 1 32 0 c 1xa0
EndSplineSet
EndChar

StartChar: uni0246
Encoding: 582 582 110
Width: 680
Flags: HW
HStem: -68 21G<182 191.5> 0 31<33 57 33 57 57 95.5 274 407 407 493> 338 31<225 315 225 315 315 317> 649 31<33 57 33 446 250.5 274 274 403> 721 20G<474 483>
VStem: 136 89<93 338 93 369 369 602 602 609> 423 25<221 257.5 452 486>
LayerCount: 2
Fore
SplineSet
33 0 m 1
 33 31 l 1
 57 31 l 2
 134 31 136 42 136 78 c 2
 136 602 l 2
 136 638 134 649 57 649 c 2
 33 649 l 1
 33 680 l 1
 446 680 l 1
 459 715 l 1
 460 716 460 717 460 718 c 1
 463 727 468 741 480 741 c 0
 486 741 495 735 495 724 c 0
 495 719 494 716 493 713 c 2
 493 711 492 711 492 710 c 1
 480 680 l 1
 596 680 l 1
 624 455 l 1
 599 455 l 1
 585 572 564 629 467 644 c 1
 365 373 l 1
 416 384 423 418 423 486 c 1
 448 486 l 1
 448 221 l 1
 423 221 l 1
 423 294 415 328 351 336 c 1
 237 35 l 1
 244 32 256 31 274 31 c 2
 407 31 l 2
 579 31 602 104 627 258 c 1
 652 258 l 1
 610 0 l 1
 224 0 l 1
 210 -39 l 2
 202 -59 197 -68 186 -68 c 0
 178 -68 173 -61 173 -52 c 0
 173 -48 173 -45 177 -34 c 2
 190 0 l 1
 33 0 l 1
225 93 m 1
 317 338 l 1
 315 338 l 1
 225 338 l 1
 225 93 l 1
225 369 m 1
 315 369 l 1
 328 369 l 1
 434 648 l 1
 424 648 414 649 403 649 c 2
 274 649 l 2
 227 649 225 642 225 609 c 2
 225 369 l 1
EndSplineSet
EndChar

StartChar: uni0247
Encoding: 583 583 111
Width: 444
Flags: HW
HStem: -130 21G<98 107.5> -11 21G<233.5 309> 231 21<112 215 111 223 258 349> 426 22<219 245> 560 20G<351 360>
VStem: 28 84<252 252 252 282.5>
LayerCount: 2
Fore
SplineSet
28 220 m 0
 28 345 120 448 236 448 c 0
 257 448 276 445 293 440 c 1
 336 554 l 1
 337 555 337 556 337 557 c 1
 340 566 345 580 357 580 c 0
 363 580 372 574 372 563 c 0
 372 558 371 555 370 552 c 2
 370 550 369 550 369 549 c 1
 324 428 l 1
 387 394 415 323 415 252 c 0
 415 231 412 231 390 231 c 2
 250 231 l 1
 178 39 l 1
 199 24 225 14 254 14 c 0
 264 14 354 14 389 117 c 0
 391 125 393 131 402 131 c 0
 407 131 415 129 415 119 c 0
 415 100 370 -11 248 -11 c 0
 219 -11 191 -5 166 6 c 1
 126 -101 l 2
 118 -121 113 -130 102 -130 c 0
 94 -130 89 -123 89 -114 c 0
 89 -110 89 -107 93 -96 c 2
 136 21 l 1
 73 60 28 132 28 220 c 0
111 231 m 1
 111 195 111 129 141 81 c 0
 144 75 148 70 153 64 c 1
 215 231 l 1
 111 231 l 1
112 252 m 1
 223 252 l 1
 283 414 l 1
 270 421 254 426 236 426 c 0
 202 426 118 401 112 252 c 1
258 252 m 1
 349 252 l 1
 349 278 344 348 310 391 c 1
 258 252 l 1
EndSplineSet
EndChar

StartChar: uni0248
Encoding: 584 584 112
Width: 513
Flags: W
HStem: -22 22<165.034 267.9> 334 32<175.992 302 388 457.11> 652 28<168 331.4 383.1 465>
VStem: 41 112<80.2 160.8> 302 86<110.282 334 366 639>
LayerCount: 2
Fore
SplineSet
41 112 m 0
 41 156 75 170 97 170 c 0
 125 170 153 150 153 114 c 0
 153 88 141 58 89 58 c 1
 125 0 193 0 199 0 c 0
 252 0 302 56 302 148 c 2
 302 334 l 1
 193 334 l 2
 179 334 168 336 168 350 c 0
 168 364 180 366 200 366 c 2
 302 366 l 1
 302 604 l 2
 302 639 302 652 204 652 c 2
 168 652 l 1
 168 683 l 1
 206 680 294 680 336 680 c 0
 383 680 421 681 465 683 c 1
 465 652 l 1
 402 652 388 652 388 611 c 2
 388 366 l 1
 436 366 l 2
 451 366 465 365 465 350 c 0
 465 336 452 334 439 334 c 2
 388 334 l 1
 388 167 l 2
 388 133 388 131 387 123 c 0
 376 48 303 -22 201 -22 c 0
 112 -22 41 38 41 112 c 0
EndSplineSet
EndChar

StartChar: uni0249
Encoding: 585 585 113
Width: 312
Flags: W
HStem: -205 22<37.4618 154.2> 199 32<63.9917 144 210 290.11> 400 31<58 99.4545> 563 106<119.3 194.7>
VStem: -40 92<-160.1 -91.2> 104 106<578.3 653.7> 144 66<-110.5 199 231 393>
LayerCount: 2
Fore
SplineSet
-40 -125 m 0xfa
 -40 -99 -22 -79 6 -79 c 0
 34 -79 52 -99 52 -125 c 0
 52 -152 32 -166 17 -170 c 1
 43 -183 66 -183 71 -183 c 0
 135 -183 144 -97 144 -52 c 2
 144 199 l 1
 81 199 l 2
 67 199 56 201 56 215 c 0
 56 229 68 231 88 231 c 2
 144 231 l 1
 144 344 l 2
 144 393 135 400 58 400 c 1
 58 431 l 1
 210 442 l 1
 210 231 l 1
 269 231 l 2
 284 231 298 230 298 215 c 0
 298 201 285 199 272 199 c 2
 210 199 l 1
 210 -50 l 2
 210 -141 148 -205 73 -205 c 0
 16 -205 -40 -177 -40 -125 c 0xfa
104 616 m 0xfc
 104 645 128 669 157 669 c 0
 186 669 210 645 210 616 c 0
 210 587 186 563 157 563 c 0
 128 563 104 587 104 616 c 0xfc
EndSplineSet
EndChar

StartChar: uni024A
Encoding: 586 586 114
Width: 715
Flags: MW
HStem: -205 23<581.7 681.013> 51 28<208.8 410.3> 650 33<220.5 471.2>
VStem: 56 100<174.3 566.9> 502 85<186.7 538> 661 91<-148.4 -88.6>
LayerCount: 2
Fore
SplineSet
56 368 m 0
 56 535 187 683 336 683 c 0
 440 683 493 601 510 565 c 1
 559 683 l 1
 587 683 l 1
 587 -10 l 2
 587 -100 593 -182 650 -182 c 0
 664 -182 680 -179 697 -170 c 1
 670 -163 661 -143 661 -125 c 0
 661 -97 683 -79 707 -79 c 0
 729 -79 752 -96 752 -126 c 0
 752 -177 698 -205 648 -205 c 0
 597 -205 501 -178 498 7 c 2
 498 144 l 1
 469 106 417 51 326 51 c 0
 176 51 56 206 56 368 c 0
156 368 m 0
 156 219 237 79 331 79 c 0
 392 79 433 114 450 132 c 0
 479 163 502 199 502 240 c 2
 502 470 l 2
 502 538 448 650 344 650 c 0
 249 650 156 521 156 368 c 0
EndSplineSet
EndChar

StartChar: uni024B
Encoding: 587 587 115
Width: 593
Flags: MW
HStem: -205 23<463.7 563.013> -11 22<156.1 312.1> 417 25<164.8 359>
VStem: 34 83<65.5 369.7> 383 66<94.4 330> 543 91<-148.4 -88.6>
LayerCount: 2
Fore
SplineSet
34 215 m 0
 34 345 139 442 255 442 c 0
 335 442 376 379 389 351 c 1
 427 442 l 1
 449 442 l 1
 449 7 l 2
 449 -90 472 -182 532 -182 c 0
 546 -182 562 -179 579 -170 c 1
 552 -163 543 -143 543 -125 c 0
 543 -97 565 -79 589 -79 c 0
 611 -79 634 -96 634 -126 c 0
 634 -177 580 -205 530 -205 c 0
 479 -205 383 -178 380 8 c 2
 380 61 l 1
 358 32 317 -11 247 -11 c 0
 131 -11 34 90 34 215 c 0
117 215 m 0
 117 100 178 11 251 11 c 0
 298 11 330 38 343 52 c 0
 365 76 383 104 383 136 c 2
 383 277 l 2
 383 330 341 417 261 417 c 0
 187 417 117 334 117 215 c 0
EndSplineSet
EndChar

StartChar: uni024C
Encoding: 588 588 116
Width: 736
Flags: MW
HStem: -22 22<598 673.5> 0 31<35 136 226 327> 331 22<224 382.116> 652 31<35 159.1 228.927 422>
VStem: 138 86<31.2 327 359 637.299> 507 103<413.3 627.8>
LayerCount: 2
Fore
SplineSet
35 0 m 1
 35 31 l 1
 59 31 l 2
 136 31 138 42 138 78 c 2
 138 327 l 1
 60 327 l 2
 46 327 35 329 35 343 c 0
 35 357 47 359 67 359 c 2
 138 359 l 1
 138 605 l 2
 138 641 136 652 59 652 c 2
 35 652 l 1
 35 683 l 1
 349 683 l 2
 496 683 610 599 610 503 c 0
 610 425 532 364 435 340 c 1
 490 321 539 288 557 224 c 2
 570 144 l 2
 584 51 592 0 641 0 c 0
 666 0 701 18 707 89 c 0
 708 96 708 105 719 105 c 0
 732 105 732 94 732 88 c 0
 732 60 715 -22 637 -22 c 0
 607 -22 552 -16 511 20 c 0
 470 58 470 98 470 163 c 0
 470 230 470 261 432 297 c 0
 397 331 355 331 339 331 c 2
 224 331 l 1
 224 78 l 2
 224 42 226 31 303 31 c 2
 327 31 l 1
 327 0 l 1
 291 3 220 3 181 3 c 0
 142 3 71 3 35 0 c 1
224 353 m 1
 335 353 l 2
 483 353 507 434 507 503 c 0
 507 648 395 652 305 652 c 0
 285 652 256 652 246 650 c 0
 224 647 224 635 224 612 c 2
 224 353 l 1
EndSplineSet
EndChar

StartChar: uni024D
Encoding: 589 589 117
Width: 391
Flags: MW
HStem: 0 31<28 109.91 174 269> 199 32<35.9917 106 172 260.11> 400 31<28 65.9091>
VStem: 106 66<31.2 199> 278 86<343.6 412.5>
LayerCount: 2
Fore
SplineSet
28 0 m 1
 28 31 l 1
 95 31 106 31 106 76 c 2
 106 199 l 1
 53 199 l 2
 39 199 28 201 28 215 c 0
 28 229 40 231 60 231 c 2
 106 231 l 1
 106 344 l 2
 106 393 98 400 28 400 c 1
 28 431 l 1
 167 442 l 1
 167 332 l 1
 181 375 217 442 290 442 c 0
 333 442 364 413 364 381 c 0
 364 349 339 337 321 337 c 0
 299 337 278 352 278 380 c 0
 278 405 297 417 300 419 c 1
 298 420 296 420 290 420 c 0
 214 420 172 331 172 232 c 2
 172 231 l 1
 239 231 l 2
 254 231 268 230 268 215 c 0
 268 201 255 199 242 199 c 2
 172 199 l 1
 172 78 l 2
 172 42 174 31 248 31 c 2
 269 31 l 1
 269 0 l 1
 229 3 182 3 142 3 c 0
 114 3 67 1 28 0 c 1
EndSplineSet
EndChar

StartChar: uni024E
Encoding: 590 590 118
Width: 750
Flags: W
HStem: 0 31<228 329 420 520> 3 28<228 352.1 396.9 520> 489 32<11.3833 178 300 514 569 730.11> 652 31<11 108.901 230.5 289 525 566.534 690.661 738>
VStem: 331 86<42 273>
LayerCount: 2
Fore
SplineSet
10 505 m 0xb8
 10 519 22 521 42 521 c 2
 178 521 l 1
 121 615 l 2
 105 641 97 652 29 652 c 2
 11 652 l 1
 11 683 l 1
 53 681 99 680 141 680 c 0
 180 680 253 680 289 683 c 1
 289 652 l 1
 244 652 219 648 219 627 c 0
 219 622 219 620 226 610 c 2
 280 521 l 1
 533 521 l 1
 572 583 l 2
 576 589 582 602 582 613 c 0
 582 633 566 652 525 652 c 1
 525 683 l 1
 551 682 609 680 640 680 c 0
 667 680 707 681 738 683 c 1
 738 652 l 1
 706 652 647 648 610 587 c 2
 569 521 l 1
 709 521 l 2
 724 521 738 520 738 505 c 0
 738 491 725 489 712 489 c 2
 550 489 l 1
 417 273 l 1
 417 80 l 2
 417 41 420 31 497 31 c 2
 520 31 l 1
 520 0 l 1xb8
 484 3 413 3 374 3 c 0x78
 335 3 264 3 228 0 c 1
 228 31 l 1
 252 31 l 2
 329 31 331 42 331 78 c 2
 331 273 l 1
 198 489 l 1
 35 489 l 2
 21 489 10 491 10 505 c 0xb8
300 489 m 1
 407 315 l 1
 514 489 l 1
 300 489 l 1
EndSplineSet
EndChar

StartChar: uni024F
Encoding: 591 591 119
Width: 527
Flags: W
HStem: -205 22<84.0187 192.9> 209 32<25.3833 151 235 336 375 500.11> 400 31<19 81.8646 180.763 225 346 378.228 473.589 508>
VStem: 19 84<-143.833 -89.2>
LayerCount: 2
Fore
SplineSet
19 -124 m 0
 19 -94 41 -81 61 -81 c 0
 84 -81 103 -97 103 -123 c 0
 103 -139 95 -161 64 -165 c 1
 83 -183 106 -183 111 -183 c 0
 175 -183 203 -114 225 -59 c 2
 250 0 l 1
 164 209 l 1
 49 209 l 2
 35 209 24 211 24 225 c 0
 24 239 36 241 56 241 c 2
 151 241 l 1
 100 365 l 2
 86 400 67 400 19 400 c 1
 19 431 l 1
 49 429 89 428 116 428 c 0
 133 428 199 430 225 431 c 1
 225 400 l 1
 206 400 169 400 169 374 c 0
 169 370 171 366 175 356 c 2
 222 241 l 1
 349 241 l 1
 387 333 l 2
 392 345 393 347 393 357 c 0
 393 382 377 399 346 400 c 1
 346 431 l 1
 368 430 415 428 433 428 c 0
 456 428 485 429 508 431 c 1
 508 400 l 1
 492 400 441 399 415 336 c 2
 375 241 l 1
 479 241 l 2
 494 241 508 240 508 225 c 0
 508 211 495 209 482 209 c 2
 362 209 l 1
 239 -91 l 2
 215 -148 174 -205 111 -205 c 0
 61 -205 19 -169 19 -124 c 0
235 209 m 1
 286 87 l 1
 336 209 l 1
 235 209 l 1
EndSplineSet
EndChar

StartChar: Kcommaaccent
Encoding: 310 310 120
Width: 777
Flags: HW
HStem: 0 31<33 57> 3 28<33 129.451 231.549 328 478 531.32 663.168 736> 652 28<33 129.451 231.549 328 510 548 651.91 722>
VStem: 136 89<78 253 287 605>
LayerCount: 2
Fore
SplineSet
33 0 m 1xb0
 33 31 l 1
 57 31 l 2
 134 31 136 42 136 78 c 2
 136 605 l 2
 136 641 134 652 57 652 c 2
 33 652 l 1
 33 683 l 1
 68 680 143 680 181 680 c 0
 219 680 293 680 328 683 c 1
 328 652 l 1
 304 652 l 2
 227 652 225 641 225 605 c 2
 225 287 l 1
 538 586 l 2
 546 593 556 603 556 619 c 0
 556 628 550 651 510 652 c 1
 510 683 l 1
 544 680 601 680 637 680 c 0
 664 680 696 680 722 683 c 1
 722 652 l 1
 641 651 588 600 580 592 c 2
 400 419 l 1
 631 79 l 2
 661 35 682 31 736 31 c 1
 736 0 l 1xb0
 694 2 656 3 621 3 c 0x70
 583 3 513 3 478 0 c 1
 478 31 l 1
 498 31 537 31 537 61 c 0
 537 73 528 86 522 95 c 2
 341 363 l 1
 225 253 l 1
 225 78 l 2
 225 42 227 31 304 31 c 2
 328 31 l 1
 328 0 l 1xb0
 293 3 218 3 180 3 c 0x70
 142 3 68 3 33 0 c 1xb0
363 -110 m 0
 363 -90 377 -73 399 -73 c 0
 422 -73 444 -93 444 -145 c 0
 444 -211 400 -281 380 -281 c 0
 377 -281 374 -277 374 -274 c 0
 374 -264 428 -228 428 -146 c 2
 428 -134 l 1
 419 -143 409 -147 400 -147 c 0
 381 -147 363 -131 363 -110 c 0
EndSplineSet
EndChar

StartChar: kcommaaccent
Encoding: 311 311 121
Width: 527
Flags: MW
HStem: -147 74<256.3 298.621> 0 31<28 110.266 163.814 247 316 344.409 462.9 511> 400 31<304.371 330.734> 652 31<28 67.2727>
VStem: 106 63<17.5 179 214 645> 309 16<-230.8 -134>
LayerCount: 2
Fore
SplineSet
28 0 m 1
 28 31 l 1
 95 31 106 31 106 76 c 2
 106 596 l 2
 106 645 98 652 28 652 c 1
 28 683 l 1
 172 694 l 1
 172 214 l 1
 313 336 l 2
 321 343 335 355 335 375 c 0
 335 388 325 399 306 400 c 1
 306 431 l 1
 320 430 382 428 418 428 c 0
 446 428 459 428 488 431 c 1
 488 400 l 1
 467 399 425 397 362 346 c 0
 352 338 281 278 281 274 c 0
 281 271 286 265 287 263 c 2
 414 84 l 2
 452 31 474 31 511 31 c 1
 511 0 l 1
 482 2 453 3 424 3 c 0
 403 3 344 1 316 0 c 1
 316 31 l 1
 335 31 352 35 352 54 c 0
 352 72 310 128 233 234 c 1
 169 179 l 1
 169 76 l 2
 169 31 180 31 247 31 c 1
 247 0 l 1
 207 2 167 3 137 3 c 0
 108 3 61 1 28 0 c 1
244 -110 m 0
 244 -90 258 -73 280 -73 c 0
 303 -73 325 -93 325 -145 c 0
 325 -211 281 -281 261 -281 c 0
 258 -281 255 -277 255 -274 c 0
 255 -264 309 -228 309 -146 c 2
 309 -134 l 1
 300 -143 290 -147 281 -147 c 0
 262 -147 244 -131 244 -110 c 0
EndSplineSet
EndChar

StartChar: kgreenlandic
Encoding: 312 312 122
Width: 531
Flags: HW
HStem: 0 21G<25 25 248 248 394.5 408.5 512 512> 204 26<170 218.971> 408 22<25 56 381.5 401>
VStem: 103 67<69 205 230 362> 388 87<350 378>
LayerCount: 2
Fore
SplineSet
25 0 m 1
 25 23 l 1
 87 23 103 27 103 69 c 2
 103 362 l 2
 103 404 87 408 25 408 c 1
 25 430 l 1
 58 429 111 428 136 428 c 0
 162 428 215 429 248 430 c 1
 248 408 l 1
 186 408 170 404 170 362 c 2
 170 230 l 1
 192 230 l 2
 239 230 293 359 323 394 c 0
 343 417 360 430 393 430 c 0
 443 430 475 403 475 364 c 0
 475 331 449 319 432 319 c 0
 410 319 388 337 388 363 c 0
 388 393 416 404 418 404 c 1
 417 405 408 408 394 408 c 0
 369 408 355 384 334 352 c 0
 301 301 277 251 277 251 c 1
 442 37 418 23 477 23 c 0
 487 23 498 23 512 23 c 1
 512 0 l 1
 487 2 463 3 438 3 c 0
 433 3 411 0 406 0 c 0
 383 0 381 10 352 46 c 0
 330 73 320 94 239 204 c 1
 170 205 l 1
 170 69 l 2
 170 27 186 23 248 23 c 1
 248 0 l 1
 215 1 163 3 137 3 c 0
 112 3 58 1 25 0 c 1
EndSplineSet
EndChar

StartChar: uni0189
Encoding: 393 393 123
Width: 763
Flags: HW
HStem: 0 31<35 59 59 97.5 273 374 374 401 35 59> 652 31<35 59 35 401 249.5 273 273 373>
VStem: 138 86<78 605 605 612> 607 100<280.5 375>
LayerCount: 2
Fore
SplineSet
35 0 m 1
 35 31 l 1
 59 31 l 2
 136 31 138 42 138 78 c 2
 138 307 l 1
 70 251 l 1
 50 275 l 1
 138 347 l 1
 138 605 l 2
 138 641 136 652 59 652 c 2
 35 652 l 1
 35 683 l 1
 401 683 l 2
 572 683 707 526 707 336 c 0
 707 148 569 0 401 0 c 2
 35 0 l 1
224 71 m 2
 224 38 226 31 273 31 c 2
 374 31 l 2
 475 31 532 89 552 116 c 0
 588 165 607 225 607 336 c 0
 607 414 598 500 555 559 c 0
 504 630 435 652 373 652 c 2
 273 652 l 2
 226 652 224 645 224 612 c 2
 224 418 l 1
 292 474 l 1
 312 450 l 1
 224 378 l 1
 224 71 l 2
EndSplineSet
EndChar

StartChar: Lcommaaccent
Encoding: 315 315 124
Width: 625
Flags: HW
HStem: 0 31<33 57 33 57 57 95.5 274 356 356 444> 652 28<33 129.451 233.838 353>
VStem: 136 89<78 604> 557 25<258 258>
LayerCount: 2
Fore
SplineSet
33 0 m 1
 33 31 l 1
 57 31 l 2
 134 31 136 42 136 78 c 2
 136 605 l 2
 136 641 134 652 57 652 c 2
 33 652 l 1
 33 683 l 1
 68 680 146 680 185 680 c 0
 226 680 317 680 353 683 c 1
 353 652 l 1
 320 652 l 2
 225 652 225 638 225 604 c 2
 225 71 l 2
 225 38 227 31 274 31 c 2
 356 31 l 2
 532 31 546 156 557 258 c 1
 582 258 l 1
 554 0 l 1
 33 0 l 1
307 -110 m 0
 307 -90 321 -73 343 -73 c 0
 366 -73 388 -93 388 -145 c 0
 388 -211 344 -281 324 -281 c 0
 321 -281 318 -277 318 -274 c 0
 318 -264 372 -228 372 -146 c 2
 372 -134 l 1
 363 -143 353 -147 344 -147 c 0
 325 -147 307 -131 307 -110 c 0
EndSplineSet
EndChar

StartChar: lcommaaccent
Encoding: 316 316 125
Width: 277
Flags: HW
HStem: 0 31<33 66.5> 652 31<33 68>
VStem: 111 66<76 596 596 620.5>
LayerCount: 2
Fore
SplineSet
33 0 m 1
 33 31 l 1
 100 31 111 31 111 76 c 2
 111 596 l 2
 111 645 103 652 33 652 c 1
 33 683 l 1
 177 694 l 1
 177 76 l 2
 177 31 188 31 255 31 c 1
 255 0 l 1
 218 1 169 3 144 3 c 0
 119 3 66 1 33 0 c 1
111 -110 m 0
 111 -90 125 -73 147 -73 c 0
 170 -73 192 -93 192 -145 c 0
 192 -211 148 -281 128 -281 c 0
 125 -281 122 -277 122 -274 c 0
 122 -264 176 -228 176 -146 c 2
 176 -134 l 1
 167 -143 157 -147 148 -147 c 0
 129 -147 111 -131 111 -110 c 0
EndSplineSet
EndChar

StartChar: circumflex.cap
Encoding: 65537 -1 126
Width: 500
Flags: W
HStem: 849 53<223.5 276.5>
VStem: 116 268
LayerCount: 2
Fore
SplineSet
116 761 m 1
 250 902 l 1
 384 761 l 1
 366 744 l 1
 250 849 l 1
 134 744 l 1
 116 761 l 1
EndSplineSet
EndChar

StartChar: dieresis.cap
Encoding: 65538 -1 127
Width: 500
Flags: W
HStem: 760 106<110.609 195.391 304.609 389.391>
VStem: 100 106<770.609 855.391> 294 106<770.609 855.391>
LayerCount: 2
Fore
SplineSet
294 813 m 0
 294 842 318 866 347 866 c 0
 376 866 400 842 400 813 c 0
 400 784 376 760 347 760 c 0
 318 760 294 784 294 813 c 0
100 813 m 4
 100 842 124 866 153 866 c 4
 182 866 206 842 206 813 c 4
 206 784 182 760 153 760 c 4
 124 760 100 784 100 813 c 4
EndSplineSet
EndChar

StartChar: dotaccent.cap
Encoding: 65539 -1 128
Width: 500
Flags: W
HStem: 766 106<207.609 292.391>
VStem: 197 106<776.609 861.391>
LayerCount: 2
Fore
SplineSet
197 819 m 0
 197 848 221 872 250 872 c 0
 279 872 303 848 303 819 c 0
 303 790 279 766 250 766 c 0
 221 766 197 790 197 819 c 0
EndSplineSet
EndChar

StartChar: caron.cap
Encoding: 65540 -1 129
Width: 500
Flags: W
HStem: 766 62<218.647 281.353>
VStem: 98 304
LayerCount: 2
Fore
SplineSet
98 891 m 1
 109 907 l 1
 212 847 l 2
 227 838 245 828 250 828 c 0
 255 828 273 838 288 847 c 2
 391 907 l 1
 402 891 l 1
 296 800 l 2
 274 781 255 766 250 766 c 0
 245 766 226 781 204 800 c 2
 98 891 l 1
EndSplineSet
EndChar

StartChar: ring.cap
Encoding: 65541 -1 130
Width: 500
Flags: W
HStem: 730 23<205.971 293.626> 891 22<207.702 291.835>
VStem: 154 26<777.035 866.552> 320 26<777.779 866.687>
LayerCount: 2
Fore
SplineSet
154 822 m 0
 154 871 196 913 250 913 c 0
 298 913 346 876 346 821 c 0
 346 767 298 730 250 730 c 0
 201 730 154 768 154 822 c 0
180 822 m 0
 180 767 216 753 249 753 c 0
 306 753 320 789 320 822 c 0
 320 877 283 891 250 891 c 0
 194 891 180 855 180 822 c 0
EndSplineSet
EndChar

StartChar: breve.cap
Encoding: 65542 -1 131
Width: 500
Flags: W
HStem: 753 38<175.991 324.009>
VStem: 100 23<853.246 891> 377 23<853.246 891>
LayerCount: 2
Fore
SplineSet
100 891 m 1
 123 891 l 1
 129 811 209 791 250 791 c 0
 291 791 371 811 377 891 c 1
 400 891 l 1
 398 805 325 753 250 753 c 0
 175 753 102 805 100 891 c 1
EndSplineSet
EndChar
